<svg width="433" height="433" viewBox="0 0 433 433" fill="none" xmlns="http://www.w3.org/2000/svg">
<circle cx="216.5" cy="216.5" r="216.5" fill="#D9D9D9"/>
<circle cx="216.5" cy="216.5" r="216.5" fill="url(#paint0_linear_922_1036)"/>
<path d="M184.882 123.378C178.978 117.054 172.927 110.973 166.737 105.197C158.369 97.4415 149.738 90.2318 141.232 84.8572C137.039 82.201 132.811 80.0741 129.633 78.999C128.308 78.5433 127.249 78.2927 126.579 78.1341L126.566 78.131C125.897 77.9727 124.981 77.7557 124.727 77.9966C123.874 79.3403 123.052 81.8418 122.58 84.7359C121.607 90.6946 121.789 97.8986 122.62 105.271C124.332 120.102 128.378 135.463 133.487 150.503C134.152 152.444 134.837 154.381 135.539 156.313L125.437 160.173C104.316 111.691 99.2733 73.1371 115.683 62.0953C132.204 50.979 166.314 70.5429 203.485 108.931C205.16 110.968 206.166 113.576 206.166 116.419C206.166 122.93 200.893 128.207 194.389 128.207C191.472 128.207 188.804 127.146 186.747 125.389C186.289 124.998 185.862 124.573 185.47 124.117C185.264 123.879 185.068 123.632 184.882 123.378Z" fill="#EDF1FF"/>
<path d="M277.398 336.693C283.909 340.289 290.515 343.224 296.472 344.624C299.367 345.305 302.046 345.515 303.714 345.244C304.305 345.148 304.758 343.991 304.962 343.187C305.482 341.13 304.983 343.071 304.983 343.071C305.188 342.023 305.448 340.109 305.45 337.813C305.482 333.195 304.637 327.291 303.247 321.303L303.234 321.248C303.231 321.235 303.228 321.223 303.225 321.211C303.194 321.077 303.163 320.943 303.131 320.809C302.964 320.374 302.826 319.924 302.719 319.463C302.634 319.097 302.569 318.724 302.524 318.344C302.476 317.941 302.452 317.53 302.452 317.113C302.452 311.402 307.077 306.772 312.783 306.772C317.768 306.772 321.928 310.304 322.9 315.005L322.909 315.003C326.866 336.669 324.592 352.465 315.022 358.905C299.774 369.165 269.54 353.288 235.747 320.597L243.303 312.391C254.181 321.671 265.609 330.138 277.398 336.693Z" fill="#EDF1FF"/>
<path d="M107.539 295.829C103.526 295.829 100.433 294.741 98.26 292.566C96.0867 290.223 95 287.044 95 283.028V182.625C95 178.441 96.0867 175.262 98.26 173.086C100.433 170.911 103.443 169.823 107.288 169.823C111.3 169.823 114.309 170.911 116.316 173.086C118.489 175.262 119.576 178.441 119.576 182.625V202.203L116.817 197.685C120.495 188.314 126.263 181.286 134.12 176.6C141.978 171.748 151.005 169.321 161.203 169.321C170.9 169.321 178.925 171.162 185.277 174.843C191.798 178.358 196.646 183.796 199.822 191.159C202.999 198.354 204.587 207.474 204.587 218.519V283.028C204.587 287.044 203.5 290.223 201.327 292.566C199.153 294.741 196.061 295.829 192.048 295.829C187.869 295.829 184.692 294.741 182.519 292.566C180.346 290.223 179.259 287.044 179.259 283.028V220.025C179.259 209.482 177.169 201.785 172.99 196.932C168.977 192.079 162.625 189.653 153.931 189.653C143.733 189.653 135.541 192.832 129.356 199.191C123.337 205.55 120.328 214.084 120.328 224.794V283.028C120.328 291.562 116.065 295.829 107.539 295.829Z" fill="#EDF1FF"/>
<path d="M285.084 296.331C274.385 296.331 265.106 293.654 257.249 288.299C249.391 282.777 244.125 275.497 241.45 266.461L244.209 261.943V283.028C244.209 287.044 243.122 290.223 240.949 292.566C238.775 294.741 235.766 295.829 231.921 295.829C227.909 295.829 224.816 294.741 222.642 292.566C220.469 290.223 219.382 287.044 219.382 283.028V128.156C219.382 123.973 220.469 120.793 222.642 118.618C224.816 116.442 227.909 115.355 231.921 115.355C235.933 115.355 239.026 116.442 241.199 118.618C243.54 120.793 244.71 123.973 244.71 128.156V198.438H241.701C244.376 189.569 249.642 182.541 257.499 177.353C265.357 171.999 274.552 169.321 285.084 169.321C296.118 169.321 305.647 171.915 313.672 177.102C321.697 182.29 327.882 189.569 332.229 198.94C336.743 208.311 339 219.606 339 232.826C339 245.711 336.743 257.006 332.229 266.712C327.882 276.25 321.613 283.613 313.421 288.801C305.397 293.821 295.951 296.331 285.084 296.331ZM278.815 276.752C285.837 276.752 291.939 275.079 297.121 271.732C302.304 268.385 306.316 263.449 309.158 256.923C312 250.397 313.421 242.364 313.421 232.826C313.421 218.435 310.245 207.558 303.892 200.195C297.706 192.832 289.347 189.151 278.815 189.151C271.961 189.151 265.859 190.824 260.509 194.171C255.326 197.35 251.314 202.203 248.472 208.729C245.63 215.256 244.209 223.288 244.209 232.826C244.209 247.05 247.385 257.927 253.738 265.457C260.091 272.987 268.45 276.752 278.815 276.752Z" fill="#EDF1FF"/>
<path d="M184.931 123.335C185.117 123.588 185.313 123.834 185.517 124.072C185.909 124.527 186.335 124.951 186.792 125.341C188.844 127.094 191.506 128.153 194.416 128.153C200.905 128.153 206.166 122.887 206.166 116.392C206.166 113.555 205.162 110.953 203.491 108.922C203.308 108.699 203.116 108.483 202.918 108.274C200.778 106.03 197.76 104.632 194.416 104.632C187.927 104.632 182.667 109.897 182.667 116.392C182.667 118.989 183.507 121.389 184.931 123.335Z" fill="#EDF1FF"/>
<path d="M245.149 316.513C245.149 319.602 242.647 322.107 239.56 322.107C236.474 322.107 233.972 319.602 233.972 316.513C233.972 313.424 236.474 310.919 239.56 310.919C242.647 310.919 245.149 313.424 245.149 316.513Z" fill="#EDF1FF"/>
<path d="M135.887 158.059C135.887 161.073 133.446 163.516 130.435 163.516C127.423 163.516 124.982 161.073 124.982 158.059C124.982 155.045 127.423 152.602 130.435 152.602C133.446 152.602 135.887 155.045 135.887 158.059Z" fill="#EDF1FF"/>
<defs>
<linearGradient id="paint0_linear_922_1036" x1="216.5" y1="0" x2="216.5" y2="433" gradientUnits="userSpaceOnUse">
<stop stop-color="#002EFE"/>
<stop offset="1" stop-color="#0025CD"/>
</linearGradient>
</defs>
</svg>
