<svg width="69" height="86" viewBox="0 0 69 86" fill="none" xmlns="http://www.w3.org/2000/svg">
<path d="M25.4174 18.2723C23.7479 16.4774 22.0367 14.7513 20.2862 13.1121C17.9198 10.9108 15.4793 8.86447 13.0737 7.33902C11.888 6.58511 10.6926 5.98144 9.7937 5.67628C9.41898 5.54694 9.11961 5.47581 8.93016 5.4308L8.92649 5.42993C8.73734 5.38499 8.47815 5.32341 8.40638 5.39177C8.16515 5.77316 7.93272 6.48314 7.79926 7.30457C7.52406 8.99583 7.57563 11.0405 7.81045 13.1331C8.29465 17.3425 9.43884 21.7024 10.8835 25.9711C11.0718 26.522 11.2653 27.0717 11.4638 27.6202L8.60729 28.7159C2.6344 14.9553 1.20842 4.01251 5.84884 0.878534C10.5207 -2.2766 20.1668 3.2762 30.6781 14.172C31.1517 14.7499 31.4362 15.4902 31.4362 16.2973C31.4362 18.1451 29.9452 19.643 28.1059 19.643C27.2811 19.643 26.5264 19.3418 25.9447 18.843C25.8154 18.7321 25.6947 18.6114 25.5836 18.4821C25.5255 18.4145 25.4701 18.3445 25.4174 18.2723Z" fill="#EDF1FF"/>
<path d="M51.5799 78.8172C53.421 79.8378 55.2892 80.6709 56.9736 81.0683C57.7922 81.2614 58.5498 81.3212 59.0216 81.2442C59.1888 81.2169 59.3169 80.8885 59.3744 80.6604C59.5214 80.0765 59.3805 80.6274 59.3805 80.6274C59.4384 80.33 59.5119 79.7866 59.5125 79.1351C59.5217 77.8244 59.2826 76.1486 58.8895 74.4491L58.8858 74.4334C58.885 74.4298 58.8842 74.4263 58.8834 74.4228C58.8745 74.3849 58.8656 74.3469 58.8567 74.3089C58.8096 74.1853 58.7706 74.0577 58.7403 73.9267C58.7163 73.8229 58.6978 73.7169 58.6851 73.6092C58.6715 73.4947 58.6646 73.3781 58.6646 73.2599C58.6646 71.6388 59.9727 70.3246 61.5863 70.3246C62.9958 70.3246 64.1722 71.3273 64.4473 72.6614L64.4498 72.6608C65.5686 78.8103 64.9256 83.2938 62.2193 85.1215C57.9073 88.0336 49.3576 83.5274 39.8013 74.2487L41.938 71.9194C45.0143 74.5534 48.246 76.9565 51.5799 78.8172Z" fill="#EDF1FF"/>
<path d="M3.54573 67.2188C2.4111 67.2188 1.53648 66.9101 0.921891 66.2926C0.307297 65.6277 0 64.7253 0 63.5854V35.0882C0 33.9008 0.307297 32.9984 0.921891 32.3809C1.53648 31.7635 2.38746 31.4548 3.47482 31.4548C4.60945 31.4548 5.46043 31.7635 6.02775 32.3809C6.64234 32.9984 6.94964 33.9008 6.94964 35.0882V40.6451L6.16958 39.3628C7.20966 36.703 8.8407 34.7082 11.0627 33.3783C13.2847 32.001 15.8376 31.3123 18.7215 31.3123C21.4635 31.3123 23.7328 31.8347 25.5293 32.8796C27.3731 33.877 28.7441 35.4206 29.6423 37.5104C30.5406 39.5527 30.9897 42.1412 30.9897 45.2759V63.5854C30.9897 64.7253 30.6824 65.6277 30.0678 66.2926C29.4532 66.9101 28.5786 67.2188 27.444 67.2188C26.2621 67.2188 25.3638 66.9101 24.7492 66.2926C24.1346 65.6277 23.8273 64.7253 23.8273 63.5854V45.7034C23.8273 42.7112 23.2364 40.5264 22.0545 39.149C20.9198 37.7717 19.1233 37.083 16.665 37.083C13.7811 37.083 11.4645 37.9854 9.71531 39.7902C8.01336 41.595 7.16238 44.0173 7.16238 47.057V63.5854C7.16238 66.0076 5.95683 67.2188 3.54573 67.2188Z" fill="#EDF1FF"/>
<path d="M53.7533 67.3613C50.7276 67.3613 48.1038 66.6013 45.8818 65.0815C43.6598 63.5141 42.1706 61.4481 41.4142 58.8833L42.1942 57.601V63.5854C42.1942 64.7253 41.8869 65.6277 41.2724 66.2926C40.6578 66.9101 39.8068 67.2188 38.7194 67.2188C37.5848 67.2188 36.7102 66.9101 36.0956 66.2926C35.481 65.6277 35.1737 64.7253 35.1737 63.5854V19.6285C35.1737 18.4411 35.481 17.5387 36.0956 16.9212C36.7102 16.3038 37.5848 15.9951 38.7194 15.9951C39.8541 15.9951 40.7287 16.3038 41.3433 16.9212C42.0051 17.5387 42.3361 18.4411 42.3361 19.6285V39.5765H41.4851C42.2415 37.0592 43.7307 35.0644 45.9527 33.5921C48.1747 32.0722 50.7749 31.3123 53.7533 31.3123C56.8736 31.3123 59.5683 32.0485 61.8376 33.5208C64.1069 34.9932 65.8561 37.0592 67.0853 39.719C68.3618 42.3787 69 45.5846 69 49.3368C69 52.9939 68.3618 56.1999 67.0853 58.9546C65.8561 61.6618 64.0832 63.7516 61.7667 65.224C59.4974 66.6488 56.8263 67.3613 53.7533 67.3613ZM51.9805 61.8043C53.9661 61.8043 55.6917 61.3293 57.1572 60.3794C58.6228 59.4295 59.7574 58.0284 60.5611 56.1761C61.3648 54.3238 61.7667 52.044 61.7667 49.3368C61.7667 45.2522 60.8684 42.165 59.0719 40.0752C57.3227 37.9854 54.9589 36.9405 51.9805 36.9405C50.0421 36.9405 48.3165 37.4154 46.8037 38.3654C45.3381 39.2678 44.2035 40.6451 43.3998 42.4975C42.5961 44.3498 42.1942 46.6295 42.1942 49.3368C42.1942 53.3739 43.0925 56.4611 44.889 58.5984C46.6855 60.7357 49.0493 61.8043 51.9805 61.8043Z" fill="#EDF1FF"/>
<path d="M25.4314 18.26C25.4839 18.332 25.5392 18.4018 25.5972 18.4693C25.708 18.5983 25.8284 18.7187 25.9575 18.8293C26.5378 19.327 27.2908 19.6275 28.1136 19.6275C29.9486 19.6275 31.4362 18.133 31.4362 16.2895C31.4362 15.4843 31.1524 14.7457 30.6798 14.1691C30.628 14.1059 30.5739 14.0446 30.5177 13.9854C29.9126 13.3484 29.0592 12.9515 28.1136 12.9515C26.2786 12.9515 24.791 14.446 24.791 16.2895C24.791 17.0265 25.0287 17.7077 25.4314 18.26Z" fill="#EDF1FF"/>
<path d="M42.4601 73.0895C42.4601 73.9664 41.7526 74.6772 40.8798 74.6772C40.007 74.6772 39.2994 73.9664 39.2994 73.0895C39.2994 72.2127 40.007 71.5018 40.8798 71.5018C41.7526 71.5018 42.4601 72.2127 42.4601 73.0895Z" fill="#EDF1FF"/>
<path d="M11.5622 28.1158C11.5622 28.9712 10.8719 29.6647 10.0204 29.6647C9.16891 29.6647 8.47861 28.9712 8.47861 28.1158C8.47861 27.2603 9.16891 26.5668 10.0204 26.5668C10.8719 26.5668 11.5622 27.2603 11.5622 28.1158Z" fill="#EDF1FF"/>
</svg>
