<svg width="1668" height="877" viewBox="0 0 1668 877" fill="none" xmlns="http://www.w3.org/2000/svg">
<g opacity="0.6">
<g filter="url(#filter0_f_944_483)">
<circle cx="174.259" cy="488.259" r="169.759" stroke="#EDF1FF"/>
</g>
<g opacity="0.6" filter="url(#filter1_f_944_483)">
<circle cx="174.5" cy="488.5" r="144" stroke="#EDF1FF"/>
</g>
<g opacity="0.4" filter="url(#filter2_f_944_483)">
<circle cx="174.5" cy="488.5" r="119" stroke="#EDF1FF"/>
</g>
<g opacity="0.2" filter="url(#filter3_f_944_483)">
<circle cx="174.5" cy="488.5" r="88" stroke="#EDF1FF"/>
</g>
<circle cx="174.259" cy="488.259" r="169.759" stroke="#EDF1FF"/>
<g filter="url(#filter4_f_944_483)">
<circle cx="634.026" cy="93.026" r="64.526" stroke="#EDF1FF"/>
</g>
<g opacity="0.6" filter="url(#filter5_f_944_483)">
<circle cx="634" cy="93" r="51.5" stroke="#EDF1FF"/>
</g>
<g opacity="0.4" filter="url(#filter6_f_944_483)">
<circle cx="634" cy="93" r="38.5" stroke="#EDF1FF"/>
</g>
<g opacity="0.2" filter="url(#filter7_f_944_483)">
<circle cx="634" cy="93" r="22.5" stroke="#EDF1FF"/>
</g>
<circle cx="634.026" cy="93.026" r="64.526" stroke="#EDF1FF"/>
<g filter="url(#filter8_f_944_483)">
<path d="M699.259 532.5C793.014 532.5 869.017 608.504 869.018 702.259C869.018 796.014 793.014 872.018 699.259 872.018C605.504 872.017 529.5 796.014 529.5 702.259C529.5 608.504 605.504 532.5 699.259 532.5Z" stroke="#EDF1FF"/>
</g>
<g opacity="0.6" filter="url(#filter9_f_944_483)">
<path d="M699.5 559.5C713.918 559.5 727.837 561.635 740.959 565.604C760.485 619.446 796.289 665.484 842.422 697.773C842.473 699.343 842.5 700.918 842.5 702.5C842.5 781.477 778.477 845.5 699.5 845.5C620.523 845.5 556.5 781.477 556.5 702.5C556.5 676.885 563.234 652.845 575.028 632.052C579.539 633.033 584.223 633.552 589.026 633.552C625.215 633.552 654.552 604.215 654.552 568.026C654.552 567.764 654.55 567.5 654.547 567.238C654.545 567.063 654.541 566.888 654.537 566.713C668.675 562.034 683.791 559.5 699.5 559.5Z" stroke="#EDF1FF"/>
</g>
<g opacity="0.4" filter="url(#filter10_f_944_483)">
<path d="M699.5 586.5C720.481 586.5 740.16 592.07 757.14 601.812C771.391 628.37 789.862 652.325 811.656 672.781C814.163 682.266 815.5 692.226 815.5 702.5C815.5 766.565 763.565 818.5 699.5 818.5C635.435 818.5 583.5 766.565 583.5 702.5C583.5 675.354 592.824 650.387 608.444 630.625C624.912 625.522 638.599 614.103 646.675 599.198C662.518 591.08 680.473 586.5 699.5 586.5Z" stroke="#EDF1FF"/>
</g>
<g opacity="0.2" filter="url(#filter11_f_944_483)">
<path d="M699.5 623.5C743.13 623.5 778.5 658.87 778.5 702.5C778.5 746.13 743.13 781.5 699.5 781.5C655.87 781.5 620.5 746.13 620.5 702.5C620.5 658.87 655.87 623.5 699.5 623.5Z" stroke="#EDF1FF"/>
</g>
<path d="M700.259 532.5C794.014 532.5 870.017 608.504 870.018 702.259C870.018 796.014 794.014 872.018 700.259 872.018C606.504 872.017 530.5 796.014 530.5 702.259C530.5 608.504 606.504 532.5 700.259 532.5Z" stroke="#EDF1FF"/>
<g filter="url(#filter12_f_944_483)">
<circle cx="1388.5" cy="279.5" r="275" stroke="#EDF1FF"/>
</g>
<g opacity="0.6" filter="url(#filter13_f_944_483)">
<path d="M1388.5 31.5C1525.47 31.5 1636.5 142.533 1636.5 279.5C1636.5 416.467 1525.47 527.5 1388.5 527.5C1347.62 527.5 1309.04 517.604 1275.04 500.079C1276.01 490.684 1276.5 481.15 1276.5 471.5C1276.5 371.763 1223.6 284.383 1144.33 235.889C1164.93 119.719 1266.42 31.5001 1388.5 31.5Z" stroke="#EDF1FF"/>
</g>
<g opacity="0.4" filter="url(#filter14_f_944_483)">
<path d="M1388.5 56.5C1511.66 56.5001 1611.5 156.341 1611.5 279.5C1611.5 402.659 1511.66 502.5 1388.5 502.5C1347.67 502.5 1309.41 491.528 1276.5 472.374C1276.5 472.083 1276.5 471.791 1276.5 471.5C1276.5 381.713 1233.62 301.941 1167.23 251.538C1180.99 141.577 1274.81 56.5 1388.5 56.5Z" stroke="#EDF1FF"/>
</g>
<g opacity="0.2" filter="url(#filter15_f_944_483)">
<path d="M1388.5 84.5C1496.19 84.5 1583.5 171.804 1583.5 279.5C1583.5 387.196 1496.19 474.5 1388.5 474.5C1345.91 474.5 1306.52 460.849 1274.45 437.685C1266.66 373.961 1237.16 316.947 1193.57 274.27C1196.34 168.992 1282.55 84.5001 1388.5 84.5Z" stroke="#EDF1FF"/>
</g>
<circle cx="1388.5" cy="279.5" r="275" stroke="#EDF1FF"/>
<g opacity="0.6" filter="url(#filter16_f_944_483)">
<circle cx="1000.5" cy="471.5" r="245" stroke="#EDF1FF"/>
</g>
<g opacity="0.4" filter="url(#filter17_f_944_483)">
<circle cx="1000.5" cy="471.5" r="215" stroke="#EDF1FF"/>
</g>
<g opacity="0.2" filter="url(#filter18_f_944_483)">
<circle cx="1000.5" cy="471.5" r="180" stroke="#EDF1FF"/>
</g>
<g filter="url(#filter19_f_944_483)">
<circle cx="1000.5" cy="471.5" r="275" stroke="#EDF1FF"/>
</g>
<circle cx="1000.5" cy="471.5" r="275" stroke="#EDF1FF"/>
<path d="M700.259 532.5C794.014 532.5 870.017 608.504 870.018 702.259C870.018 796.014 794.014 872.018 700.259 872.018C606.504 872.017 530.5 796.014 530.5 702.259C530.5 608.504 606.504 532.5 700.259 532.5Z" stroke="#EDF1FF"/>
<circle cx="1388.5" cy="279.5" r="275" stroke="#EDF1FF"/>
<g filter="url(#filter20_f_944_483)">
<circle cx="589.026" cy="568.026" r="64.526" stroke="#EDF1FF"/>
</g>
<g opacity="0.6" filter="url(#filter21_f_944_483)">
<circle cx="589" cy="568" r="51.5" stroke="#EDF1FF"/>
</g>
<g opacity="0.4" filter="url(#filter22_f_944_483)">
<circle cx="589" cy="568" r="38.5" stroke="#EDF1FF"/>
</g>
<g opacity="0.2" filter="url(#filter23_f_944_483)">
<circle cx="589" cy="568" r="22.5" stroke="#EDF1FF"/>
</g>
<circle cx="589.026" cy="568.026" r="64.526" stroke="#EDF1FF"/>
<path d="M700.259 532.5C794.014 532.5 870.017 608.504 870.018 702.259C870.018 796.014 794.014 872.018 700.259 872.018C606.504 872.017 530.5 796.014 530.5 702.259C530.5 608.504 606.504 532.5 700.259 532.5Z" stroke="#EDF1FF"/>
</g>
<defs>
<filter id="filter0_f_944_483" x="0" y="314" width="348.516" height="348.518" filterUnits="userSpaceOnUse" color-interpolation-filters="sRGB">
<feFlood flood-opacity="0" result="BackgroundImageFix"/>
<feBlend mode="normal" in="SourceGraphic" in2="BackgroundImageFix" result="shape"/>
<feGaussianBlur stdDeviation="2" result="effect1_foregroundBlur_944_483"/>
</filter>
<filter id="filter1_f_944_483" x="26" y="340" width="297" height="297" filterUnits="userSpaceOnUse" color-interpolation-filters="sRGB">
<feFlood flood-opacity="0" result="BackgroundImageFix"/>
<feBlend mode="normal" in="SourceGraphic" in2="BackgroundImageFix" result="shape"/>
<feGaussianBlur stdDeviation="2" result="effect1_foregroundBlur_944_483"/>
</filter>
<filter id="filter2_f_944_483" x="51" y="365" width="247" height="247" filterUnits="userSpaceOnUse" color-interpolation-filters="sRGB">
<feFlood flood-opacity="0" result="BackgroundImageFix"/>
<feBlend mode="normal" in="SourceGraphic" in2="BackgroundImageFix" result="shape"/>
<feGaussianBlur stdDeviation="2" result="effect1_foregroundBlur_944_483"/>
</filter>
<filter id="filter3_f_944_483" x="82" y="396" width="185" height="185" filterUnits="userSpaceOnUse" color-interpolation-filters="sRGB">
<feFlood flood-opacity="0" result="BackgroundImageFix"/>
<feBlend mode="normal" in="SourceGraphic" in2="BackgroundImageFix" result="shape"/>
<feGaussianBlur stdDeviation="2" result="effect1_foregroundBlur_944_483"/>
</filter>
<filter id="filter4_f_944_483" x="565" y="24" width="138.055" height="138.053" filterUnits="userSpaceOnUse" color-interpolation-filters="sRGB">
<feFlood flood-opacity="0" result="BackgroundImageFix"/>
<feBlend mode="normal" in="SourceGraphic" in2="BackgroundImageFix" result="shape"/>
<feGaussianBlur stdDeviation="2" result="effect1_foregroundBlur_944_483"/>
</filter>
<filter id="filter5_f_944_483" x="578" y="37" width="112" height="112" filterUnits="userSpaceOnUse" color-interpolation-filters="sRGB">
<feFlood flood-opacity="0" result="BackgroundImageFix"/>
<feBlend mode="normal" in="SourceGraphic" in2="BackgroundImageFix" result="shape"/>
<feGaussianBlur stdDeviation="2" result="effect1_foregroundBlur_944_483"/>
</filter>
<filter id="filter6_f_944_483" x="591" y="50" width="86" height="86" filterUnits="userSpaceOnUse" color-interpolation-filters="sRGB">
<feFlood flood-opacity="0" result="BackgroundImageFix"/>
<feBlend mode="normal" in="SourceGraphic" in2="BackgroundImageFix" result="shape"/>
<feGaussianBlur stdDeviation="2" result="effect1_foregroundBlur_944_483"/>
</filter>
<filter id="filter7_f_944_483" x="607" y="66" width="54" height="54" filterUnits="userSpaceOnUse" color-interpolation-filters="sRGB">
<feFlood flood-opacity="0" result="BackgroundImageFix"/>
<feBlend mode="normal" in="SourceGraphic" in2="BackgroundImageFix" result="shape"/>
<feGaussianBlur stdDeviation="2" result="effect1_foregroundBlur_944_483"/>
</filter>
<filter id="filter8_f_944_483" x="525" y="528" width="348.516" height="348.518" filterUnits="userSpaceOnUse" color-interpolation-filters="sRGB">
<feFlood flood-opacity="0" result="BackgroundImageFix"/>
<feBlend mode="normal" in="SourceGraphic" in2="BackgroundImageFix" result="shape"/>
<feGaussianBlur stdDeviation="2" result="effect1_foregroundBlur_944_483"/>
</filter>
<filter id="filter9_f_944_483" x="552" y="555" width="295" height="295" filterUnits="userSpaceOnUse" color-interpolation-filters="sRGB">
<feFlood flood-opacity="0" result="BackgroundImageFix"/>
<feBlend mode="normal" in="SourceGraphic" in2="BackgroundImageFix" result="shape"/>
<feGaussianBlur stdDeviation="2" result="effect1_foregroundBlur_944_483"/>
</filter>
<filter id="filter10_f_944_483" x="579" y="582" width="241" height="241" filterUnits="userSpaceOnUse" color-interpolation-filters="sRGB">
<feFlood flood-opacity="0" result="BackgroundImageFix"/>
<feBlend mode="normal" in="SourceGraphic" in2="BackgroundImageFix" result="shape"/>
<feGaussianBlur stdDeviation="2" result="effect1_foregroundBlur_944_483"/>
</filter>
<filter id="filter11_f_944_483" x="616" y="619" width="167" height="167" filterUnits="userSpaceOnUse" color-interpolation-filters="sRGB">
<feFlood flood-opacity="0" result="BackgroundImageFix"/>
<feBlend mode="normal" in="SourceGraphic" in2="BackgroundImageFix" result="shape"/>
<feGaussianBlur stdDeviation="2" result="effect1_foregroundBlur_944_483"/>
</filter>
<filter id="filter12_f_944_483" x="1109" y="0" width="559" height="559" filterUnits="userSpaceOnUse" color-interpolation-filters="sRGB">
<feFlood flood-opacity="0" result="BackgroundImageFix"/>
<feBlend mode="normal" in="SourceGraphic" in2="BackgroundImageFix" result="shape"/>
<feGaussianBlur stdDeviation="2" result="effect1_foregroundBlur_944_483"/>
</filter>
<filter id="filter13_f_944_483" x="1139.77" y="27" width="501.227" height="505" filterUnits="userSpaceOnUse" color-interpolation-filters="sRGB">
<feFlood flood-opacity="0" result="BackgroundImageFix"/>
<feBlend mode="normal" in="SourceGraphic" in2="BackgroundImageFix" result="shape"/>
<feGaussianBlur stdDeviation="2" result="effect1_foregroundBlur_944_483"/>
</filter>
<filter id="filter14_f_944_483" x="1162.7" y="52" width="453.297" height="455" filterUnits="userSpaceOnUse" color-interpolation-filters="sRGB">
<feFlood flood-opacity="0" result="BackgroundImageFix"/>
<feBlend mode="normal" in="SourceGraphic" in2="BackgroundImageFix" result="shape"/>
<feGaussianBlur stdDeviation="2" result="effect1_foregroundBlur_944_483"/>
</filter>
<filter id="filter15_f_944_483" x="1189.06" y="80" width="398.938" height="399" filterUnits="userSpaceOnUse" color-interpolation-filters="sRGB">
<feFlood flood-opacity="0" result="BackgroundImageFix"/>
<feBlend mode="normal" in="SourceGraphic" in2="BackgroundImageFix" result="shape"/>
<feGaussianBlur stdDeviation="2" result="effect1_foregroundBlur_944_483"/>
</filter>
<filter id="filter16_f_944_483" x="751" y="222" width="499" height="499" filterUnits="userSpaceOnUse" color-interpolation-filters="sRGB">
<feFlood flood-opacity="0" result="BackgroundImageFix"/>
<feBlend mode="normal" in="SourceGraphic" in2="BackgroundImageFix" result="shape"/>
<feGaussianBlur stdDeviation="2" result="effect1_foregroundBlur_944_483"/>
</filter>
<filter id="filter17_f_944_483" x="781" y="252" width="439" height="439" filterUnits="userSpaceOnUse" color-interpolation-filters="sRGB">
<feFlood flood-opacity="0" result="BackgroundImageFix"/>
<feBlend mode="normal" in="SourceGraphic" in2="BackgroundImageFix" result="shape"/>
<feGaussianBlur stdDeviation="2" result="effect1_foregroundBlur_944_483"/>
</filter>
<filter id="filter18_f_944_483" x="816" y="287" width="369" height="369" filterUnits="userSpaceOnUse" color-interpolation-filters="sRGB">
<feFlood flood-opacity="0" result="BackgroundImageFix"/>
<feBlend mode="normal" in="SourceGraphic" in2="BackgroundImageFix" result="shape"/>
<feGaussianBlur stdDeviation="2" result="effect1_foregroundBlur_944_483"/>
</filter>
<filter id="filter19_f_944_483" x="721" y="192" width="559" height="559" filterUnits="userSpaceOnUse" color-interpolation-filters="sRGB">
<feFlood flood-opacity="0" result="BackgroundImageFix"/>
<feBlend mode="normal" in="SourceGraphic" in2="BackgroundImageFix" result="shape"/>
<feGaussianBlur stdDeviation="2" result="effect1_foregroundBlur_944_483"/>
</filter>
<filter id="filter20_f_944_483" x="520" y="499" width="138.055" height="138.053" filterUnits="userSpaceOnUse" color-interpolation-filters="sRGB">
<feFlood flood-opacity="0" result="BackgroundImageFix"/>
<feBlend mode="normal" in="SourceGraphic" in2="BackgroundImageFix" result="shape"/>
<feGaussianBlur stdDeviation="2" result="effect1_foregroundBlur_944_483"/>
</filter>
<filter id="filter21_f_944_483" x="533" y="512" width="112" height="112" filterUnits="userSpaceOnUse" color-interpolation-filters="sRGB">
<feFlood flood-opacity="0" result="BackgroundImageFix"/>
<feBlend mode="normal" in="SourceGraphic" in2="BackgroundImageFix" result="shape"/>
<feGaussianBlur stdDeviation="2" result="effect1_foregroundBlur_944_483"/>
</filter>
<filter id="filter22_f_944_483" x="546" y="525" width="86" height="86" filterUnits="userSpaceOnUse" color-interpolation-filters="sRGB">
<feFlood flood-opacity="0" result="BackgroundImageFix"/>
<feBlend mode="normal" in="SourceGraphic" in2="BackgroundImageFix" result="shape"/>
<feGaussianBlur stdDeviation="2" result="effect1_foregroundBlur_944_483"/>
</filter>
<filter id="filter23_f_944_483" x="562" y="541" width="54" height="54" filterUnits="userSpaceOnUse" color-interpolation-filters="sRGB">
<feFlood flood-opacity="0" result="BackgroundImageFix"/>
<feBlend mode="normal" in="SourceGraphic" in2="BackgroundImageFix" result="shape"/>
<feGaussianBlur stdDeviation="2" result="effect1_foregroundBlur_944_483"/>
</filter>
</defs>
</svg>
