<svg width="1553" height="1080" viewBox="0 0 1553 1080" fill="none" xmlns="http://www.w3.org/2000/svg">
<g clip-path="url(#clip0_785_612)">
<rect width="1553" height="1080" fill="black"/>
<rect width="670" height="670" transform="translate(883)" fill="white"/>
<path d="M962.601 412.054H978.888C982.973 412.054 986.599 412.863 989.764 414.483C992.929 416.102 995.377 418.384 997.106 421.329C998.873 424.236 999.756 427.585 999.756 431.376C999.756 435.167 998.873 438.535 997.106 441.479C995.377 444.387 992.929 446.651 989.764 448.27C986.599 449.89 982.973 450.699 978.888 450.699H962.601V412.054ZM978.557 445.896C981.685 445.896 984.427 445.289 986.783 444.074C989.175 442.86 991.015 441.167 992.303 438.995C993.592 436.787 994.236 434.247 994.236 431.376C994.236 428.506 993.592 425.984 992.303 423.813C991.015 421.605 989.175 419.893 986.783 418.679C984.427 417.464 981.685 416.857 978.557 416.857H968.122V445.896H978.557ZM1016.66 451.03C1013.75 451.03 1011.14 450.386 1008.82 449.098C1006.5 447.81 1004.68 446.043 1003.35 443.798C1002.07 441.516 1001.42 438.94 1001.42 436.069C1001.42 433.198 1002.07 430.64 1003.35 428.395C1004.68 426.113 1006.5 424.347 1008.82 423.095C1011.14 421.807 1013.75 421.163 1016.66 421.163C1019.57 421.163 1022.16 421.807 1024.44 423.095C1026.76 424.347 1028.57 426.113 1029.85 428.395C1031.18 430.64 1031.84 433.198 1031.84 436.069C1031.84 438.94 1031.18 441.516 1029.85 443.798C1028.57 446.043 1026.76 447.81 1024.44 449.098C1022.16 450.386 1019.57 451.03 1016.66 451.03ZM1016.66 446.393C1018.54 446.393 1020.21 445.97 1021.68 445.123C1023.19 444.24 1024.37 443.025 1025.22 441.479C1026.06 439.897 1026.49 438.093 1026.49 436.069C1026.49 434.045 1026.06 432.26 1025.22 430.714C1024.37 429.131 1023.19 427.917 1021.68 427.07C1020.21 426.224 1018.54 425.8 1016.66 425.8C1014.78 425.8 1013.09 426.224 1011.58 427.07C1010.11 427.917 1008.93 429.131 1008.05 430.714C1007.2 432.26 1006.78 434.045 1006.78 436.069C1006.78 438.093 1007.2 439.897 1008.05 441.479C1008.93 443.025 1010.11 444.24 1011.58 445.123C1013.09 445.97 1014.78 446.393 1016.66 446.393ZM1051.48 421.163C1055.2 421.163 1058.14 422.249 1060.32 424.42C1062.52 426.555 1063.63 429.702 1063.63 433.861V450.699H1058.33V434.468C1058.33 431.634 1057.65 429.499 1056.29 428.064C1054.92 426.629 1052.97 425.911 1050.43 425.911C1047.56 425.911 1045.3 426.757 1043.64 428.45C1041.99 430.107 1041.16 432.499 1041.16 435.627V450.699H1035.86V421.439H1040.94V425.856C1042.01 424.347 1043.44 423.187 1045.24 422.378C1047.08 421.568 1049.16 421.163 1051.48 421.163ZM1071.07 409.404C1072.1 409.404 1072.95 409.772 1073.61 410.508C1074.31 411.207 1074.66 412.09 1074.66 413.158C1074.66 413.71 1074.61 414.262 1074.5 414.814C1074.38 415.329 1074.15 416.084 1073.78 417.078L1071.13 424.807H1067.65L1069.69 416.581C1068.99 416.323 1068.42 415.9 1067.98 415.311C1067.58 414.685 1067.37 413.967 1067.37 413.158C1067.37 412.054 1067.72 411.152 1068.42 410.453C1069.12 409.753 1070 409.404 1071.07 409.404ZM1094.35 448.988C1093.57 449.65 1092.62 450.166 1091.48 450.534C1090.33 450.865 1089.16 451.03 1087.94 451.03C1085 451.03 1082.72 450.239 1081.1 448.657C1079.48 447.074 1078.67 444.81 1078.67 441.866V415.035H1083.97V421.439H1092.36V425.8H1083.97V441.645C1083.97 443.228 1084.35 444.442 1085.13 445.289C1085.94 446.135 1087.08 446.559 1088.55 446.559C1090.17 446.559 1091.55 446.099 1092.69 445.178L1094.35 448.988ZM1153.53 421.439V437.615C1153.53 441.921 1152.47 445.234 1150.33 447.552C1148.2 449.871 1145.11 451.03 1141.06 451.03C1136.27 451.03 1132.96 449.282 1131.12 445.786C1130.16 447.552 1128.86 448.877 1127.2 449.761C1125.58 450.607 1123.56 451.03 1121.13 451.03C1117.04 451.03 1113.93 449.871 1111.8 447.552C1109.7 445.234 1108.65 441.921 1108.65 437.615V421.439H1113.95V437.118C1113.95 440.247 1114.52 442.565 1115.66 444.074C1116.8 445.546 1118.62 446.283 1121.13 446.283C1123.63 446.283 1125.47 445.528 1126.65 444.019C1127.86 442.51 1128.47 440.21 1128.47 437.118V421.439H1133.77V437.118C1133.77 440.21 1134.36 442.51 1135.54 444.019C1136.75 445.528 1138.61 446.283 1141.11 446.283C1143.58 446.283 1145.38 445.546 1146.52 444.074C1147.66 442.565 1148.23 440.247 1148.23 437.118V421.439H1153.53ZM1172.54 451.03C1169.64 451.03 1167.02 450.386 1164.71 449.098C1162.39 447.81 1160.56 446.043 1159.24 443.798C1157.95 441.516 1157.31 438.94 1157.31 436.069C1157.31 433.198 1157.95 430.64 1159.24 428.395C1160.56 426.113 1162.39 424.347 1164.71 423.095C1167.02 421.807 1169.64 421.163 1172.54 421.163C1175.45 421.163 1178.05 421.807 1180.33 423.095C1182.65 424.347 1184.45 426.113 1185.74 428.395C1187.06 430.64 1187.73 433.198 1187.73 436.069C1187.73 438.94 1187.06 441.516 1185.74 443.798C1184.45 446.043 1182.65 447.81 1180.33 449.098C1178.05 450.386 1175.45 451.03 1172.54 451.03ZM1172.54 446.393C1174.42 446.393 1176.1 445.97 1177.57 445.123C1179.08 444.24 1180.26 443.025 1181.1 441.479C1181.95 439.897 1182.37 438.093 1182.37 436.069C1182.37 434.045 1181.95 432.26 1181.1 430.714C1180.26 429.131 1179.08 427.917 1177.57 427.07C1176.1 426.224 1174.42 425.8 1172.54 425.8C1170.67 425.8 1168.97 426.224 1167.47 427.07C1165.99 427.917 1164.82 429.131 1163.93 430.714C1163.09 432.26 1162.66 434.045 1162.66 436.069C1162.66 438.093 1163.09 439.897 1163.93 441.479C1164.82 443.025 1165.99 444.24 1167.47 445.123C1168.97 445.97 1170.67 446.393 1172.54 446.393ZM1196.82 426.352C1197.74 424.659 1199.11 423.371 1200.91 422.488C1202.71 421.605 1204.9 421.163 1207.48 421.163V426.297C1207.18 426.26 1206.78 426.242 1206.26 426.242C1203.39 426.242 1201.13 427.107 1199.47 428.837C1197.85 430.53 1197.04 432.959 1197.04 436.124V450.699H1191.74V421.439H1196.82V426.352ZM1215.78 426.352C1216.7 424.659 1218.06 423.371 1219.86 422.488C1221.67 421.605 1223.86 421.163 1226.43 421.163V426.297C1226.14 426.26 1225.73 426.242 1225.22 426.242C1222.35 426.242 1220.08 427.107 1218.43 428.837C1216.81 430.53 1216 432.959 1216 436.124V450.699H1210.7V421.439H1215.78V426.352ZM1257.3 421.439V446.724C1257.3 451.84 1256.11 455.613 1253.71 458.042C1251.32 460.508 1247.73 461.741 1242.95 461.741C1240.33 461.741 1237.83 461.354 1235.44 460.581C1233.08 459.845 1231.15 458.778 1229.64 457.379L1232.24 453.294C1233.53 454.472 1235.07 455.392 1236.88 456.054C1238.72 456.717 1240.65 457.048 1242.67 457.048C1245.87 457.048 1248.23 456.238 1249.74 454.619C1251.25 453.036 1252 450.589 1252 447.276V445.123C1250.93 446.522 1249.55 447.608 1247.86 448.38C1246.17 449.117 1244.33 449.485 1242.34 449.485C1238.44 449.485 1235.37 448.417 1233.12 446.283C1230.88 444.148 1229.75 440.983 1229.75 436.787V421.439H1235.05V436.18C1235.05 438.977 1235.73 441.111 1237.1 442.584C1238.46 444.019 1240.41 444.737 1242.95 444.737C1245.75 444.737 1247.95 443.89 1249.57 442.197C1251.19 440.504 1252 438.112 1252 435.02V421.439H1257.3ZM1303.2 421.439V450.699H1298.12V446.062C1296.94 447.681 1295.45 448.914 1293.65 449.761C1291.84 450.607 1289.86 451.03 1287.68 451.03C1284.85 451.03 1282.31 450.405 1280.07 449.153C1277.82 447.902 1276.05 446.154 1274.77 443.909C1273.51 441.627 1272.89 439.014 1272.89 436.069C1272.89 433.125 1273.51 430.53 1274.77 428.285C1276.05 426.04 1277.82 424.291 1280.07 423.04C1282.31 421.789 1284.85 421.163 1287.68 421.163C1289.78 421.163 1291.71 421.568 1293.48 422.378C1295.25 423.15 1296.72 424.31 1297.9 425.856V421.439H1303.2ZM1288.13 446.393C1289.97 446.393 1291.64 445.97 1293.15 445.123C1294.66 444.24 1295.84 443.025 1296.68 441.479C1297.53 439.897 1297.95 438.093 1297.95 436.069C1297.95 434.045 1297.53 432.26 1296.68 430.714C1295.84 429.131 1294.66 427.917 1293.15 427.07C1291.64 426.224 1289.97 425.8 1288.13 425.8C1286.25 425.8 1284.56 426.224 1283.05 427.07C1281.57 427.917 1280.4 429.131 1279.51 430.714C1278.67 432.26 1278.24 434.045 1278.24 436.069C1278.24 438.093 1278.67 439.897 1279.51 441.479C1280.4 443.025 1281.57 444.24 1283.05 445.123C1284.56 445.97 1286.25 446.393 1288.13 446.393ZM1325.43 421.163C1328.26 421.163 1330.8 421.789 1333.05 423.04C1335.29 424.291 1337.04 426.04 1338.29 428.285C1339.58 430.53 1340.22 433.125 1340.22 436.069C1340.22 439.014 1339.58 441.627 1338.29 443.909C1337.04 446.154 1335.29 447.902 1333.05 449.153C1330.8 450.405 1328.26 451.03 1325.43 451.03C1323.25 451.03 1321.27 450.607 1319.46 449.761C1317.66 448.914 1316.17 447.681 1314.99 446.062V450.699H1309.91V409.735H1315.21V425.856C1316.39 424.31 1317.86 423.15 1319.63 422.378C1321.4 421.568 1323.33 421.163 1325.43 421.163ZM1324.98 446.393C1326.86 446.393 1328.54 445.97 1330.01 445.123C1331.52 444.24 1332.7 443.025 1333.54 441.479C1334.43 439.897 1334.87 438.093 1334.87 436.069C1334.87 434.045 1334.43 432.26 1333.54 430.714C1332.7 429.131 1331.52 427.917 1330.01 427.07C1328.54 426.224 1326.86 425.8 1324.98 425.8C1323.14 425.8 1321.47 426.224 1319.96 427.07C1318.45 427.917 1317.27 429.131 1316.43 430.714C1315.58 432.26 1315.16 434.045 1315.16 436.069C1315.16 438.093 1315.58 439.897 1316.43 441.479C1317.27 443.025 1318.45 444.24 1319.96 445.123C1321.47 445.97 1323.14 446.393 1324.98 446.393ZM1356.76 451.03C1353.86 451.03 1351.24 450.386 1348.93 449.098C1346.61 447.81 1344.78 446.043 1343.46 443.798C1342.17 441.516 1341.53 438.94 1341.53 436.069C1341.53 433.198 1342.17 430.64 1343.46 428.395C1344.78 426.113 1346.61 424.347 1348.93 423.095C1351.24 421.807 1353.86 421.163 1356.76 421.163C1359.67 421.163 1362.27 421.807 1364.55 423.095C1366.87 424.347 1368.67 426.113 1369.96 428.395C1371.28 430.64 1371.95 433.198 1371.95 436.069C1371.95 438.94 1371.28 441.516 1369.96 443.798C1368.67 446.043 1366.87 447.81 1364.55 449.098C1362.27 450.386 1359.67 451.03 1356.76 451.03ZM1356.76 446.393C1358.64 446.393 1360.32 445.97 1361.79 445.123C1363.3 444.24 1364.48 443.025 1365.32 441.479C1366.17 439.897 1366.59 438.093 1366.59 436.069C1366.59 434.045 1366.17 432.26 1365.32 430.714C1364.48 429.131 1363.3 427.917 1361.79 427.07C1360.32 426.224 1358.64 425.8 1356.76 425.8C1354.89 425.8 1353.19 426.224 1351.69 427.07C1350.21 427.917 1349.04 429.131 1348.15 430.714C1347.31 432.26 1346.88 434.045 1346.88 436.069C1346.88 438.093 1347.31 439.897 1348.15 441.479C1349.04 443.025 1350.21 444.24 1351.69 445.123C1353.19 445.97 1354.89 446.393 1356.76 446.393ZM1403.24 421.439V450.699H1398.21V446.283C1397.15 447.792 1395.73 448.969 1393.96 449.816C1392.23 450.626 1390.34 451.03 1388.28 451.03C1384.37 451.03 1381.3 449.963 1379.06 447.828C1376.81 445.657 1375.69 442.473 1375.69 438.277V421.439H1380.99V437.67C1380.99 440.504 1381.67 442.657 1383.03 444.129C1384.39 445.565 1386.34 446.283 1388.88 446.283C1391.68 446.283 1393.89 445.436 1395.51 443.743C1397.13 442.05 1397.94 439.658 1397.94 436.566V421.439H1403.24ZM1425.42 448.988C1424.64 449.65 1423.69 450.166 1422.55 450.534C1421.41 450.865 1420.23 451.03 1419.01 451.03C1416.07 451.03 1413.79 450.239 1412.17 448.657C1410.55 447.074 1409.74 444.81 1409.74 441.866V415.035H1415.04V421.439H1423.43V425.8H1415.04V441.645C1415.04 443.228 1415.42 444.442 1416.2 445.289C1417.01 446.135 1418.15 446.559 1419.62 446.559C1421.24 446.559 1422.62 446.099 1423.76 445.178L1425.42 448.988ZM1440 421.439H1445.3V450.699H1440V421.439ZM1442.65 415.808C1441.62 415.808 1440.75 415.477 1440.05 414.814C1439.39 414.152 1439.06 413.342 1439.06 412.385C1439.06 411.428 1439.39 410.618 1440.05 409.956C1440.75 409.256 1441.62 408.907 1442.65 408.907C1443.68 408.907 1444.52 409.238 1445.19 409.901C1445.89 410.526 1446.24 411.318 1446.24 412.274C1446.24 413.268 1445.89 414.115 1445.19 414.814C1444.52 415.477 1443.68 415.808 1442.65 415.808ZM1467.51 448.988C1466.73 449.65 1465.78 450.166 1464.64 450.534C1463.49 450.865 1462.32 451.03 1461.1 451.03C1458.16 451.03 1455.88 450.239 1454.26 448.657C1452.64 447.074 1451.83 444.81 1451.83 441.866V415.035H1457.13V421.439H1465.52V425.8H1457.13V441.645C1457.13 443.228 1457.51 444.442 1458.29 445.289C1459.1 446.135 1460.24 446.559 1461.71 446.559C1463.33 446.559 1464.71 446.099 1465.85 445.178L1467.51 448.988ZM1472.38 451.03C1471.35 451.03 1470.47 450.681 1469.73 449.982C1469 449.245 1468.63 448.325 1468.63 447.221C1468.63 446.154 1469 445.27 1469.73 444.571C1470.47 443.835 1471.35 443.467 1472.38 443.467C1473.41 443.467 1474.28 443.817 1474.98 444.516C1475.68 445.215 1476.03 446.117 1476.03 447.221C1476.03 448.325 1475.66 449.245 1474.92 449.982C1474.22 450.681 1473.38 451.03 1472.38 451.03Z" fill="black"/>
<path d="M1086.15 324.2V265.24H1079V246.48H1092.76V245.051C1091.57 244.574 1090.43 243.949 1089.36 243.175C1088.35 242.341 1087.49 241.507 1086.77 240.673C1085.16 238.827 1084.06 236.713 1083.47 234.331C1083.29 233.735 1083.17 233.14 1083.11 232.544C1083.05 231.889 1083.02 231.234 1083.02 230.579C1083.02 228.375 1083.35 226.588 1084 225.219C1084.72 223.849 1085.43 222.777 1086.15 222.003C1087.16 220.871 1088.41 219.948 1089.9 219.233C1091.39 218.519 1093.11 217.953 1095.08 217.536C1096.03 217.357 1097.05 217.238 1098.12 217.179C1099.19 217.06 1100.32 217 1101.51 217H1151.81V324.2H1131.71V236.207H1108.03C1106.78 236.207 1105.77 236.475 1105 237.011C1104.52 237.368 1104.16 237.725 1103.92 238.083C1103.69 238.44 1103.48 238.916 1103.3 239.512C1103.12 239.988 1103.03 240.584 1103.03 241.299C1103.03 242.609 1103.33 243.651 1103.92 244.425C1104.52 245.319 1105.32 245.914 1106.34 246.212C1106.75 246.391 1107.32 246.48 1108.03 246.48H1120.09V265.24H1106.25V324.2H1086.15Z" fill="black"/>
<path d="M1275.22 246.48H1295.32C1295.32 246.837 1295.26 247.314 1295.14 247.909C1295.08 248.445 1294.9 249.1 1294.61 249.875C1294.31 250.708 1294.07 251.393 1293.89 251.929C1293.71 252.465 1293.36 253.18 1292.82 254.073C1292.64 254.431 1292.46 254.788 1292.28 255.145C1292.11 255.443 1291.93 255.741 1291.75 256.039L1292.82 256.932C1297.76 249.368 1304.23 245.587 1312.21 245.587C1316.73 245.587 1320.31 246.778 1322.93 249.16C1325.61 251.602 1327.36 255.175 1328.2 259.88C1328.37 261.071 1328.52 262.352 1328.64 263.721C1328.76 265.032 1328.82 266.431 1328.82 267.92V302.492C1328.82 305.41 1328.58 308.15 1328.11 310.711C1327.69 313.212 1327.01 315.326 1326.05 317.053C1325.1 318.84 1323.97 320.329 1322.66 321.52C1321.35 322.652 1319.74 323.545 1317.83 324.2C1315.99 324.796 1313.87 325.093 1311.49 325.093C1308.81 325.093 1306.46 324.766 1304.43 324.111C1303 323.694 1301.87 323.307 1301.04 322.949C1300.26 322.592 1299.28 322.056 1298.09 321.341C1297.08 320.805 1296.16 320.18 1295.32 319.465V361.05C1295.32 372.151 1286.32 381.15 1275.22 381.15V246.48ZM1294.43 272.923V297.757C1294.43 299.723 1294.82 301.39 1295.59 302.76C1295.83 303.236 1296.24 303.772 1296.84 304.368C1297.5 304.904 1298.24 305.291 1299.07 305.529C1299.79 305.768 1300.62 305.887 1301.57 305.887C1302.41 305.887 1303.21 305.797 1303.99 305.619C1304.76 305.38 1305.48 304.993 1306.13 304.457C1306.67 303.981 1307.11 303.475 1307.47 302.939C1307.89 302.343 1308.22 301.539 1308.45 300.527C1308.63 299.574 1308.72 298.651 1308.72 297.757V272.923C1308.72 270.957 1308.33 269.26 1307.56 267.831C1307.32 267.414 1306.88 266.937 1306.22 266.401C1305.62 265.806 1304.94 265.389 1304.17 265.151C1303.39 264.912 1302.53 264.793 1301.57 264.793C1300.74 264.793 1299.94 264.912 1299.16 265.151C1298.39 265.329 1297.7 265.687 1297.11 266.223C1296.51 266.699 1296.01 267.235 1295.59 267.831C1295.23 268.367 1294.96 269.141 1294.79 270.153C1294.55 271.106 1294.43 272.029 1294.43 272.923Z" fill="black"/>
<path d="M1344.58 325.093C1343.27 325.093 1341.93 324.885 1340.56 324.468C1339.25 324.051 1338.12 323.456 1337.17 322.681C1336.1 321.907 1335.17 321.014 1334.4 320.001C1333.68 318.989 1333.12 317.828 1332.7 316.517C1332.22 315.207 1331.99 313.897 1331.99 312.587C1331.99 311.098 1332.22 309.758 1332.7 308.567C1333.18 307.316 1333.77 306.184 1334.49 305.172C1335.26 304.04 1336.16 303.147 1337.17 302.492C1338.18 301.777 1339.34 301.182 1340.65 300.705C1341.96 300.288 1343.27 300.08 1344.58 300.08C1345.89 300.08 1347.23 300.318 1348.6 300.795C1349.97 301.212 1351.1 301.748 1352 302.403C1352.95 303.177 1353.78 304.04 1354.5 304.993C1355.21 305.946 1355.84 307.137 1356.37 308.567C1356.79 309.936 1357 311.276 1357 312.587C1357 313.778 1356.79 315.088 1356.37 316.517C1355.96 317.947 1355.39 319.108 1354.68 320.001C1353.9 321.014 1352.98 321.937 1351.91 322.771C1350.9 323.545 1349.76 324.111 1348.51 324.468C1347.92 324.647 1347.29 324.796 1346.64 324.915C1345.98 325.034 1345.3 325.093 1344.58 325.093Z" fill="black"/>
<path fill-rule="evenodd" clip-rule="evenodd" d="M1216 309.779V261.729C1216 260 1216.45 258.214 1217.34 256.371C1218.01 254.412 1219.02 252.914 1220.36 251.877C1221.93 250.724 1223.83 249.687 1226.07 248.765C1228.31 247.728 1230.88 247.037 1233.79 246.691C1236.7 246.23 1239.72 246 1242.85 246C1246.43 246 1249.68 246.23 1252.59 246.691C1255.5 247.152 1258.07 247.959 1260.31 249.111C1262.77 250.148 1264.45 251.07 1265.34 251.877C1268.25 254.642 1269.71 257.926 1269.71 261.729V309.779C1269.71 311.508 1269.37 313.294 1268.7 315.137C1267.8 317.096 1266.57 318.652 1265.01 319.804C1263.66 320.841 1261.99 321.82 1259.97 322.742C1257.51 323.779 1254.83 324.528 1251.92 324.989C1249.01 325.335 1245.99 325.508 1242.85 325.508C1239.27 325.508 1236.14 325.277 1233.45 324.816C1230.32 324.356 1227.52 323.607 1225.06 322.569C1222.83 321.417 1221.26 320.38 1220.36 319.458C1217.45 316.808 1216 313.582 1216 309.779ZM1235.24 273.195V298.03C1235.24 299.995 1235.63 301.663 1236.4 303.032C1236.64 303.509 1237.06 304.045 1237.66 304.64C1238.31 305.176 1239.05 305.563 1239.89 305.802C1240.6 306.04 1241.44 306.159 1242.39 306.159C1243.22 306.159 1244.03 306.07 1244.8 305.891C1245.58 305.653 1246.29 305.266 1246.95 304.73C1247.48 304.253 1247.93 303.747 1248.29 303.211C1248.7 302.615 1249.03 301.811 1249.27 300.799C1249.45 299.846 1249.54 298.923 1249.54 298.03V273.195C1249.54 271.23 1249.15 269.532 1248.38 268.103C1248.14 267.686 1247.69 267.21 1247.04 266.674C1246.44 266.078 1245.75 265.661 1244.98 265.423C1244.21 265.185 1243.34 265.066 1242.39 265.066C1241.56 265.066 1240.75 265.185 1239.98 265.423C1239.2 265.602 1238.52 265.959 1237.92 266.495C1237.33 266.971 1236.82 267.507 1236.4 268.103C1236.05 268.639 1235.78 269.413 1235.6 270.426C1235.36 271.379 1235.24 272.302 1235.24 273.195Z" fill="black"/>
<path fill-rule="evenodd" clip-rule="evenodd" d="M1157 309.779V261.729C1157 260 1157.45 258.214 1158.34 256.371C1159.01 254.412 1160.02 252.914 1161.36 251.877C1162.93 250.724 1164.83 249.687 1167.07 248.765C1169.31 247.728 1171.88 247.037 1174.79 246.691C1177.7 246.23 1180.72 246 1183.85 246C1187.43 246 1190.68 246.23 1193.59 246.691C1196.5 247.152 1199.07 247.959 1201.31 249.111C1203.77 250.148 1205.45 251.07 1206.34 251.877C1209.25 254.642 1210.71 257.926 1210.71 261.729V309.779C1210.71 311.508 1210.37 313.294 1209.7 315.137C1208.8 317.096 1207.57 318.652 1206.01 319.804C1204.66 320.841 1202.99 321.82 1200.97 322.742C1198.51 323.779 1195.83 324.528 1192.92 324.989C1190.01 325.335 1186.99 325.508 1183.85 325.508C1180.27 325.508 1177.14 325.277 1174.45 324.816C1171.32 324.356 1168.52 323.607 1166.06 322.569C1163.83 321.417 1162.26 320.38 1161.36 319.458C1158.45 316.808 1157 313.582 1157 309.779ZM1176.24 273.195V298.03C1176.24 299.995 1176.63 301.663 1177.4 303.032C1177.64 303.509 1178.06 304.045 1178.66 304.64C1179.31 305.176 1180.05 305.563 1180.89 305.802C1181.6 306.04 1182.44 306.159 1183.39 306.159C1184.22 306.159 1185.03 306.07 1185.8 305.891C1186.58 305.653 1187.29 305.266 1187.95 304.73C1188.48 304.253 1188.93 303.747 1189.29 303.211C1189.7 302.615 1190.03 301.811 1190.27 300.799C1190.45 299.846 1190.54 298.923 1190.54 298.03V273.195C1190.54 271.23 1190.15 269.532 1189.38 268.103C1189.14 267.686 1188.69 267.21 1188.04 266.674C1187.44 266.078 1186.75 265.661 1185.98 265.423C1185.21 265.185 1184.34 265.066 1183.39 265.066C1182.56 265.066 1181.75 265.185 1180.98 265.423C1180.2 265.602 1179.52 265.959 1178.92 266.495C1178.33 266.971 1177.82 267.507 1177.4 268.103C1177.05 268.639 1176.78 269.413 1176.6 270.426C1176.36 271.379 1176.24 272.302 1176.24 273.195Z" fill="black"/>
<path d="M1085 337H1265V357H1105C1093.95 357 1085 348.046 1085 337V337Z" fill="black"/>
<path d="M1305 337H1321C1332.05 337 1341 345.954 1341 357V357H1305V337Z" fill="black"/>
<path d="M534.371 474.377C526.646 474.377 520.54 472.247 516.053 467.988C511.623 463.671 509.408 457.054 509.408 448.137C509.408 442.911 510.402 438.311 512.39 434.335C514.378 430.302 517.53 427.178 521.847 424.963C526.163 422.691 531.758 421.555 538.63 421.555C544.026 421.555 548.485 421.839 552.006 422.407C555.585 422.975 558.027 423.543 559.333 424.111V426.667L561.037 436.039C559.504 434.903 556.806 433.767 552.943 432.631C549.081 431.495 544.367 430.927 538.801 430.927C534.995 430.927 531.871 431.58 529.429 432.886C526.987 434.136 525.198 436.039 524.062 438.595C522.926 441.151 522.358 444.331 522.358 448.137C522.358 452.226 522.869 455.52 523.891 458.02C524.914 460.462 526.561 462.223 528.833 463.302C531.105 464.381 534.115 464.921 537.864 464.921C540.704 464.921 543.004 464.637 544.765 464.069C546.525 463.444 547.832 462.62 548.684 461.598C549.536 460.519 549.962 459.326 549.962 458.02V456.656C549.962 455.35 549.848 454.612 549.621 454.441C549.45 454.214 548.712 454.1 547.406 454.1H544.679C542.748 454.1 541.101 454.299 539.738 454.697C538.375 455.094 537.409 455.492 536.841 455.89L537.693 447.455V444.899H564.53C564.133 444.956 563.735 445.382 563.338 446.177C562.997 446.916 562.826 448.194 562.826 450.011V468.414C562.826 470.231 562.997 471.537 563.338 472.333C563.735 473.128 564.133 473.525 564.53 473.525H549.962V472.418L550.132 470.032L549.962 469.862C549.564 470.43 548.769 471.083 547.576 471.821C546.383 472.503 544.708 473.099 542.549 473.611C540.448 474.122 537.722 474.377 534.371 474.377ZM589.434 474.377C584.947 474.377 581.198 473.923 578.188 473.014C575.234 472.049 572.877 470.685 571.116 468.925C569.356 467.107 568.106 464.921 567.368 462.365C566.629 459.809 566.26 456.912 566.26 453.675C566.26 447.256 568.049 442.173 571.628 438.424C575.206 434.676 580.687 432.801 588.071 432.801C592.387 432.801 595.88 433.398 598.55 434.59C601.276 435.783 603.349 437.373 604.769 439.361C606.189 441.349 607.155 443.564 607.666 446.007C608.234 448.392 608.518 450.806 608.518 453.249V457.253C608.518 457.082 607.723 456.912 606.132 456.742C604.599 456.514 601.986 456.401 598.294 456.401H578.529C578.529 459.525 579.466 461.882 581.34 463.472C583.271 465.006 586.395 465.772 590.712 465.772C594.347 465.772 597.584 465.346 600.424 464.495C603.321 463.586 605.422 462.734 606.729 461.939V464.495L607.581 470.969C606.502 471.708 604.428 472.475 601.361 473.27C598.294 474.008 594.318 474.377 589.434 474.377ZM581.681 449.074H596.42C596.42 447.824 596.136 446.603 595.568 445.41C595.057 444.218 594.205 443.252 593.012 442.514C591.819 441.719 590.172 441.321 588.071 441.321C585.969 441.321 584.265 441.633 582.959 442.258C581.709 442.883 580.772 443.65 580.147 444.558C579.579 445.467 579.295 446.404 579.295 447.37C579.295 447.938 579.466 448.364 579.806 448.648C580.147 448.932 580.772 449.074 581.681 449.074ZM610.597 473.525C610.995 473.525 611.364 473.128 611.705 472.333C612.102 471.537 612.301 470.231 612.301 468.414V439.617C612.301 437.799 612.102 436.522 611.705 435.783C611.364 434.988 610.995 434.562 610.597 434.505C613.096 434.505 615.652 434.335 618.265 433.994C620.878 433.596 622.922 433.199 624.399 432.801V436.209L624.229 437.657L624.399 437.828C624.797 437.203 625.421 436.522 626.273 435.783C627.182 434.988 628.318 434.306 629.681 433.738C631.101 433.114 632.748 432.801 634.623 432.801C637.406 432.801 639.877 433.199 642.035 433.994C644.193 434.732 645.727 435.499 646.635 436.294L644.08 447.711V450.267C643.228 449.074 642.063 447.853 640.586 446.603C639.167 445.354 637.576 444.303 635.815 443.451C634.112 442.599 632.351 442.173 630.533 442.173C628.489 442.173 626.955 442.911 625.933 444.388C624.91 445.865 624.399 448.194 624.399 451.374V468.414C624.399 470.231 624.569 471.537 624.91 472.333C625.308 473.128 625.705 473.525 626.103 473.525H610.597ZM665.064 474.377C661.77 474.377 658.958 473.809 656.629 472.673C654.301 471.481 652.54 469.464 651.347 466.624C650.155 463.728 649.558 459.723 649.558 454.612V438.765C649.558 436.948 649.359 435.641 648.962 434.846C648.621 434.051 648.252 433.653 647.854 433.653H663.53C663.133 433.653 662.707 434.051 662.252 434.846C661.855 435.641 661.656 436.948 661.656 438.765V455.804C661.656 459.383 662.309 461.939 663.616 463.472C664.979 465.006 666.541 465.772 668.301 465.772C670.801 465.772 672.732 465.204 674.095 464.069C675.458 462.876 676.424 461.342 676.992 459.468C677.56 457.537 677.844 455.52 677.844 453.419V438.765C677.844 436.948 677.645 435.67 677.247 434.931C676.906 434.136 676.537 433.71 676.14 433.653H689.941V468.414C689.941 470.231 690.112 471.537 690.453 472.333C690.85 473.128 691.248 473.525 691.645 473.525H677.844V470.203L678.014 468.499L677.844 468.328C677.276 469.18 676.566 469.976 675.714 470.714C674.862 471.452 673.896 472.105 672.817 472.673C671.738 473.185 670.545 473.582 669.239 473.866C667.932 474.207 666.541 474.377 665.064 474.377ZM690.768 473.525C691.279 473.525 692.131 473.128 693.324 472.333C694.517 471.537 695.88 470.26 697.414 468.499C698.493 467.192 699.771 465.659 701.247 463.898C702.724 462.081 704.201 460.235 705.678 458.36C707.211 456.486 708.518 454.867 709.597 453.504C708.688 452.482 707.666 451.317 706.53 450.011C705.394 448.705 704.229 447.37 703.037 446.007C701.901 444.644 700.765 443.366 699.629 442.173C698.549 440.923 697.612 439.844 696.817 438.935C695.113 437.004 693.75 435.641 692.728 434.846C691.705 434.051 691.052 433.653 690.768 433.653H709.171C708.773 433.71 708.631 434.136 708.745 434.931C708.915 435.726 709.653 437.061 710.96 438.935C711.528 439.731 712.181 440.639 712.919 441.662C713.658 442.684 714.396 443.706 715.134 444.729C715.873 445.751 716.498 446.632 717.009 447.37H717.179C717.634 446.688 718.173 445.865 718.798 444.899C719.48 443.934 720.189 442.911 720.928 441.832C721.666 440.753 722.348 439.731 722.973 438.765C724.165 436.891 724.819 435.584 724.932 434.846C725.103 434.051 725.017 433.653 724.677 433.653H743.335C742.823 433.653 742 434.051 740.864 434.846C739.728 435.584 738.365 436.862 736.774 438.68C735.695 439.929 734.361 441.463 732.77 443.28C731.237 445.041 729.703 446.83 728.17 448.648C726.636 450.465 725.273 452.084 724.08 453.504C725.557 455.151 727.034 456.798 728.51 458.446C729.987 460.036 731.435 461.655 732.855 463.302C734.332 464.949 735.809 466.596 737.286 468.243C738.99 470.174 740.353 471.537 741.375 472.333C742.454 473.128 743.136 473.525 743.42 473.525H725.017C725.415 473.525 725.557 473.128 725.443 472.333C725.33 471.537 724.62 470.174 723.313 468.243C722.745 467.334 722.064 466.34 721.269 465.261C720.473 464.182 719.678 463.103 718.883 462.024C718.088 460.945 717.406 460.036 716.838 459.298H716.668C716.214 460.036 715.646 460.945 714.964 462.024C714.339 463.103 713.658 464.211 712.919 465.346C712.238 466.482 711.585 467.505 710.96 468.414C709.71 470.288 709 471.623 708.83 472.418C708.659 473.156 708.773 473.525 709.171 473.525H690.768Z" fill="white"/>
<path d="M577.782 303.234C589.43 326.632 611.949 358.902 647.594 384.771C641.557 389.532 635.158 393.852 628.441 397.681C599.853 381.383 576.982 356.208 563.58 325.908C563.794 325.475 564.015 325.034 564.244 324.585C564.41 324.26 564.579 323.932 564.753 323.6C565.674 321.835 566.706 319.963 567.846 318.019C568.204 317.408 568.573 316.79 568.951 316.166C571.463 312.025 574.427 307.613 577.782 303.234ZM609.3 275.812C621.608 298.909 643.74 329.053 677.587 353.387C672.994 359.79 667.923 365.826 662.426 371.444C623.596 344.442 601.166 308.959 591.975 287.668C593.087 286.664 594.219 285.686 595.374 284.744C595.855 284.352 596.341 283.965 596.829 283.585C600.769 280.516 604.939 277.856 609.3 275.812ZM629.096 271.437C658.402 272.358 683.474 306.374 693.537 325.377C691.824 329.291 689.952 333.12 687.931 336.856C659.603 316.225 640.435 291.235 629.096 271.437ZM628.441 217C655.936 217 681.751 224.193 704.106 236.799C705.627 245.492 706.42 254.434 706.42 263.562C706.42 280.211 703.782 296.244 698.902 311.266C686.944 274.453 661.519 243.711 628.441 224.854C595.363 243.711 569.938 274.454 557.979 311.268C553.1 296.245 550.463 280.212 550.463 263.562C550.463 254.434 551.256 245.492 552.776 236.799C575.132 224.193 600.947 217 628.441 217Z" fill="white"/>
<rect width="1187" height="410" transform="translate(366 670)" fill="black"/>
<path d="M1250.15 805C1247.39 805 1244.87 804.813 1242.58 804.438C1240.32 804.088 1238.13 803.463 1236.02 802.563C1233.94 801.639 1232.17 800.451 1230.73 799.002C1229.29 797.552 1228.14 795.665 1227.27 793.341C1226.42 791.017 1226 788.33 1226 785.281C1226 783.932 1226.4 783.257 1227.19 783.257H1244.18C1244.95 783.257 1245.53 783.444 1245.9 783.819C1246.27 784.194 1246.49 784.656 1246.57 785.206C1246.64 785.756 1246.71 786.306 1246.75 786.856C1246.83 787.406 1247.02 787.868 1247.31 788.243C1247.64 788.618 1248.13 788.805 1248.8 788.805C1249.43 788.805 1249.92 788.643 1250.29 788.318C1250.69 787.968 1250.97 787.456 1251.11 786.781C1251.29 786.106 1251.39 785.519 1251.41 785.019C1251.46 784.519 1251.49 783.882 1251.49 783.107V782.807C1251.46 781.008 1251.39 777.534 1251.26 772.385C1251.16 767.237 1251.11 763.213 1251.11 760.314V747.568C1251.11 746.843 1251.64 746.418 1252.68 746.294C1253.47 746.294 1254.67 746.306 1256.26 746.331C1257.85 746.356 1259.04 746.368 1259.83 746.368C1261.03 746.368 1262.79 746.356 1265.12 746.331C1267.46 746.306 1269.22 746.294 1270.42 746.294H1273.92C1274.49 746.294 1274.89 746.643 1275.11 747.343C1275.06 747.793 1275.04 748.405 1275.04 749.18C1275.06 749.955 1275.06 750.567 1275.04 751.017V752.891C1274.79 760.564 1274.66 767.412 1274.66 773.435V785.206C1274.66 787.406 1274.37 789.442 1273.77 791.317C1273.17 793.191 1272.38 794.791 1271.38 796.115C1270.39 797.44 1269.2 798.64 1267.81 799.714C1266.44 800.764 1265.03 801.614 1263.56 802.263C1262.09 802.913 1260.54 803.45 1258.9 803.875C1257.29 804.3 1255.76 804.588 1254.32 804.738C1252.9 804.913 1251.51 805 1250.15 805Z" fill="#FFF8F2"/>
<path d="M1275.87 803.521C1275.5 803.084 1275.24 802.322 1275.37 801.763C1276.62 796.323 1278.12 791.303 1279.65 785.636C1281.26 779.662 1283.27 772.521 1285.67 764.212C1288.1 755.877 1289.76 750.115 1290.64 746.925C1290.92 746.412 1291.1 746.104 1291.2 746L1298.14 746.368C1299.61 746.368 1301.77 746.344 1304.63 746.294C1307.48 746.244 1309.64 746.219 1311.11 746.219H1317.37C1317.74 746.219 1318.05 746.231 1318.3 746.256C1318.55 746.256 1318.85 746.281 1319.19 746.331C1319.54 746.381 1319.82 746.456 1320.01 746.556C1320.24 746.656 1320.42 746.806 1320.57 747.006C1320.72 747.206 1320.8 747.443 1320.8 747.718L1335.59 802.488C1335.59 802.988 1335.4 803.326 1335.03 803.5C1334.68 803.7 1334.01 803.8 1333.02 803.8H1329.59C1328.59 803.8 1327.12 803.813 1325.15 803.838C1323.19 803.863 1324.1 803.875 1323.11 803.875C1322.81 803.875 1322.2 803.888 1321.28 803.913C1320.39 803.963 1319.63 803.975 1319.01 803.95C1318.39 803.95 1317.69 803.913 1316.92 803.838C1316.18 803.788 1315.57 803.65 1315.1 803.425C1314.65 803.226 1314.36 802.951 1314.24 802.601V800.127C1313.99 798.877 1313.56 797.727 1312.93 796.678C1312.31 795.628 1311.66 795.103 1310.96 795.103H1298.14L1296.2 803.051C1295.93 803.65 1294.54 803.95 1292.03 803.95H1289.05C1287.98 803.95 1286.39 803.988 1284.28 804.063C1282.17 804.138 1282.3 804.091 1281.23 804.137L1280.19 804.182C1279.79 804.2 1279.16 804.12 1278.29 804.182C1277.83 804.216 1277.42 804.139 1277.06 804.065C1276.56 803.962 1276.2 803.911 1275.87 803.521ZM1299.41 780.145L1300.45 781.907H1302.91C1304.9 781.907 1306.71 781.795 1308.35 781.57C1310.02 781.32 1310.85 780.933 1310.85 780.408L1306.04 758.815C1305.59 758.815 1304.99 759.664 1304.22 761.364C1303.47 763.063 1302.86 764.988 1302.39 767.137L1299.41 780.145Z" fill="#FFF8F2"/>
<path d="M1369.56 773.66C1369.46 774.335 1369.26 775.922 1368.96 778.421C1368.69 780.92 1368.38 783.544 1368.03 786.293C1367.68 789.043 1367.3 791.804 1366.87 794.578C1366.45 797.327 1365.97 799.602 1365.42 801.401C1364.88 803.201 1364.33 804.1 1363.78 804.1C1362.71 804.1 1361.14 804.075 1359.05 804.025C1356.96 803.975 1355.39 803.95 1354.32 803.95C1349.52 803.95 1345.94 804.433 1341.76 803.663C1341.4 803.513 1341.07 803.259 1340.78 802.904C1340.5 802.547 1340.26 802.113 1340.05 801.601C1339.87 801.088 1339.71 800.635 1339.59 800.243C1339.48 799.824 1339.36 799.306 1339.22 798.69C1339.1 798.047 1339.01 797.614 1338.95 797.393C1333.26 777.117 1329.76 764.782 1328.45 760.388L1324.99 748C1324.95 747.301 1325.26 746.804 1325.94 746.507C1326.54 746.516 1330.67 746.219 1331.96 746.219H1334.94C1335.54 746.219 1336.39 746.194 1337.51 746.144C1338.63 746.094 1339.44 746.069 1339.93 746.069C1340.41 746.044 1341.1 746.056 1342.02 746.106C1342.94 746.131 1343.54 746.144 1343.81 746.144H1345.97C1346.22 746.194 1346.59 746.219 1347.09 746.219H1348.21C1348.65 746.344 1349.1 747.206 1349.55 748.805C1350 750.405 1350.42 752.604 1350.82 755.403C1351.21 758.202 1351.54 760.651 1351.78 762.751C1352.03 764.825 1352.31 767.349 1352.6 770.323C1352.93 773.273 1353.09 774.772 1353.09 774.822L1357.82 746.294C1359.01 746.393 1359.96 746.443 1360.65 746.443H1362.96C1364.97 746.443 1367.88 746.431 1371.68 746.406C1375.51 746.381 1378.36 746.368 1380.25 746.368C1380.77 746.368 1381.1 746.568 1381.22 746.968L1385.88 777.971C1386.35 772.273 1386.93 767.062 1387.63 762.338L1389.87 747.118C1390.04 746.518 1390.91 746.219 1392.47 746.219H1394.26C1394.56 746.194 1395.02 746.206 1395.64 746.256C1396.29 746.281 1396.75 746.294 1397.02 746.294H1400.3C1401.22 746.294 1402.25 746.306 1403.39 746.331C1404.56 746.356 1405.17 746.368 1405.22 746.368H1409.61C1409.84 746.368 1409.99 746.543 1410.06 746.893C1410.14 747.218 1410.2 747.768 1410.25 748.543L1398.25 803.725C1397.75 803.775 1397.16 803.8 1396.46 803.8C1395.77 803.8 1395.13 803.788 1394.56 803.763C1393.99 803.763 1393.33 803.75 1392.59 803.725C1391.84 803.725 1391.23 803.725 1390.76 803.725C1389.74 803.725 1388.19 803.713 1386.1 803.688C1384.04 803.663 1382.49 803.65 1381.44 803.65C1381.32 803.65 1378.9 803.725 1374.18 803.875L1369.56 773.66Z" fill="#FFF8F2"/>
<path d="M1404.64 803.135C1404.08 802.671 1403.82 801.942 1403.96 801.231L1406.95 785.75C1408.08 779.657 1410.51 768.091 1414.26 751.052L1414.84 748.035C1414.95 747.495 1415.11 747.195 1415.32 747.135L1432.37 746.593C1432.62 746.593 1433.12 747.543 1433.86 749.443C1434.63 751.342 1435.55 753.791 1436.62 756.79C1437.71 759.764 1438.48 761.814 1438.93 762.938L1444.15 776.659V762.114C1444.15 760.864 1444.17 758.577 1444.22 755.253C1444.29 751.904 1444.32 749.293 1444.29 747.418C1444.29 746.718 1446.28 746.368 1450.26 746.368C1451.5 746.368 1453.2 746.393 1455.36 746.443C1457.52 746.493 1458.85 746.518 1459.35 746.518H1462.18C1462.58 746.518 1462.78 746.593 1462.78 746.743C1462.93 753.691 1463 763.638 1463 776.584V802.601C1462.83 803.251 1462.03 803.575 1460.62 803.575H1459.65C1458.35 803.575 1456.45 803.6 1453.95 803.65C1451.44 803.7 1449.54 803.725 1448.24 803.725H1437.29C1436.94 803.6 1436.22 802.026 1435.13 799.002C1433.96 795.728 1432.22 790.992 1429.91 784.794C1427.6 778.596 1426.31 775.134 1426.04 774.41C1426.04 775.884 1426.02 778.083 1426 781.008C1425.97 783.932 1425.96 786.131 1425.96 787.605C1425.96 788.705 1425.99 790.355 1426.04 792.554C1426.09 794.753 1426.11 796.403 1426.11 797.502V802.226C1426.11 803.376 1425.61 803.95 1424.62 803.95L1405.87 803.595C1405.42 803.586 1404.99 803.424 1404.64 803.135Z" fill="#FFF8F2"/>
<path d="M1185.73 762.769V805.546H1176.01C1171.72 805.546 1168.23 802.064 1168.23 797.769V762.769H1185.73Z" fill="#FF9800"/>
<path d="M1246.01 770.547C1246.01 774.842 1242.53 778.324 1238.23 778.324H1220.73V797.769C1220.73 802.064 1217.25 805.546 1212.96 805.546H1189.62V762.769H1246.01V770.547Z" fill="#FF7400"/>
<path d="M1238.23 745.27C1242.53 745.27 1246.01 748.752 1246.01 753.047V758.88H1189.62V745.27H1238.23Z" fill="#FF5100"/>
<path d="M1185.73 758.88H1168.23V753.047C1168.23 748.752 1171.72 745.27 1176.01 745.27H1185.73V758.88Z" fill="#FFBB00"/>
<rect x="1100" y="878" width="453" height="202" fill="#FFF8F2"/>
<path d="M1256.74 996C1254.03 996 1251.55 995.816 1249.3 995.447C1247.08 995.103 1244.93 994.489 1242.85 993.605C1240.8 992.696 1239.07 991.529 1237.65 990.104C1236.24 988.679 1235.1 986.824 1234.25 984.539C1233.42 982.254 1233 979.613 1233 976.615C1233 975.289 1233.39 974.625 1234.17 974.625H1250.88C1251.63 974.625 1252.2 974.81 1252.56 975.178C1252.93 975.547 1253.15 976.001 1253.22 976.542C1253.29 977.082 1253.36 977.623 1253.4 978.163C1253.48 978.704 1253.66 979.158 1253.95 979.527C1254.27 979.895 1254.76 980.08 1255.42 980.08C1256.03 980.08 1256.52 979.92 1256.88 979.601C1257.28 979.257 1257.54 978.753 1257.69 978.09C1257.86 977.426 1257.96 976.849 1257.98 976.357C1258.03 975.866 1258.06 975.24 1258.06 974.478V974.183C1258.03 972.414 1257.96 968.999 1257.84 963.938C1257.74 958.877 1257.69 954.921 1257.69 952.071V939.542C1257.69 938.829 1258.2 938.411 1259.23 938.289C1260.01 938.289 1261.18 938.301 1262.75 938.325C1264.31 938.35 1265.48 938.362 1266.26 938.362C1267.43 938.362 1269.17 938.35 1271.46 938.325C1273.76 938.301 1275.49 938.289 1276.67 938.289H1280.11C1280.67 938.289 1281.06 938.633 1281.28 939.32C1281.23 939.763 1281.21 940.365 1281.21 941.126C1281.23 941.888 1281.23 942.49 1281.21 942.932V944.775C1280.96 952.317 1280.84 959.049 1280.84 964.97V976.542C1280.84 978.704 1280.55 980.706 1279.96 982.549C1279.38 984.391 1278.6 985.964 1277.62 987.266C1276.64 988.568 1275.47 989.747 1274.1 990.804C1272.76 991.836 1271.37 992.671 1269.93 993.31C1268.49 993.949 1266.96 994.477 1265.35 994.894C1263.76 995.312 1262.26 995.595 1260.84 995.742C1259.45 995.914 1258.08 996 1256.74 996Z" fill="#0D1923"/>
<path d="M1282.03 994.546C1281.66 994.116 1281.41 993.368 1281.54 992.818C1282.77 987.47 1284.24 982.535 1285.75 976.964C1287.33 971.092 1289.3 964.072 1291.67 955.904C1294.05 947.71 1295.68 942.045 1296.55 938.909C1296.82 938.405 1297 938.102 1297.1 938L1303.92 938.362C1305.37 938.362 1307.49 938.338 1310.3 938.289C1313.11 938.239 1315.23 938.215 1316.67 938.215H1322.83C1323.19 938.215 1323.5 938.227 1323.74 938.252C1323.99 938.252 1324.28 938.276 1324.62 938.325C1324.96 938.375 1325.23 938.448 1325.43 938.547C1325.65 938.645 1325.83 938.792 1325.98 938.989C1326.12 939.185 1326.2 939.419 1326.2 939.689L1340.74 993.531C1340.74 994.022 1340.55 994.354 1340.19 994.526C1339.85 994.722 1339.19 994.821 1338.21 994.821H1334.84C1333.86 994.821 1332.41 994.833 1330.48 994.858C1328.55 994.882 1329.45 994.894 1328.47 994.894C1328.18 994.894 1327.58 994.907 1326.67 994.931C1325.79 994.98 1325.05 994.993 1324.44 994.968C1323.83 994.968 1323.14 994.931 1322.39 994.858C1321.65 994.808 1321.06 994.673 1320.59 994.452C1320.15 994.256 1319.87 993.985 1319.75 993.641V991.209C1319.51 989.981 1319.08 988.851 1318.47 987.819C1317.86 986.787 1317.21 986.271 1316.53 986.271H1303.92L1302.02 994.084C1301.75 994.673 1300.38 994.968 1297.92 994.968H1294.99C1293.94 994.968 1292.37 995.005 1290.3 995.079C1288.22 995.152 1288.34 995.107 1287.3 995.152L1286.27 995.196C1285.88 995.213 1285.26 995.135 1284.41 995.196C1283.96 995.229 1283.55 995.154 1283.2 995.081C1282.7 994.98 1282.36 994.93 1282.03 994.546ZM1305.17 971.567L1306.2 973.299H1308.61C1310.57 973.299 1312.35 973.188 1313.96 972.967C1315.6 972.721 1316.42 972.341 1316.42 971.825L1311.69 950.597C1311.25 950.597 1310.65 951.433 1309.9 953.103C1309.16 954.774 1308.56 956.666 1308.1 958.779L1305.17 971.567Z" fill="#0D1923"/>
<path d="M1374.13 965.191C1374.04 965.854 1373.84 967.415 1373.55 969.871C1373.28 972.328 1372.97 974.908 1372.63 977.61C1372.29 980.313 1371.91 983.028 1371.5 985.755C1371.08 988.457 1370.61 990.693 1370.07 992.462C1369.53 994.231 1368.99 995.116 1368.46 995.116C1367.41 995.116 1365.86 995.091 1363.8 995.042C1361.75 994.993 1360.2 994.968 1359.15 994.968C1354.44 994.968 1350.92 995.443 1346.81 994.686C1346.45 994.538 1346.13 994.289 1345.84 993.94C1345.57 993.589 1345.33 993.162 1345.13 992.659C1344.95 992.154 1344.79 991.709 1344.67 991.323C1344.57 990.912 1344.45 990.403 1344.31 989.797C1344.19 989.164 1344.1 988.74 1344.04 988.522C1338.45 968.589 1335.01 956.463 1333.72 952.144L1330.32 939.966C1330.28 939.279 1330.58 938.79 1331.25 938.498C1331.84 938.507 1335.9 938.215 1337.17 938.215H1340.1C1340.69 938.215 1341.53 938.19 1342.63 938.141C1343.73 938.092 1344.52 938.067 1345.01 938.067C1345.48 938.043 1346.16 938.055 1347.06 938.104C1347.97 938.129 1348.55 938.141 1348.82 938.141H1350.95C1351.19 938.19 1351.56 938.215 1352.05 938.215H1353.14C1353.58 938.338 1354.02 939.185 1354.46 940.758C1354.9 942.33 1355.32 944.492 1355.71 947.244C1356.1 949.995 1356.42 952.403 1356.66 954.467C1356.91 956.506 1357.17 958.988 1357.47 961.911C1357.78 964.81 1357.94 966.284 1357.94 966.334L1362.6 938.289C1363.77 938.387 1364.7 938.436 1365.38 938.436H1367.65C1369.63 938.436 1372.49 938.424 1376.22 938.399C1379.98 938.375 1382.79 938.362 1384.65 938.362C1385.16 938.362 1385.48 938.559 1385.6 938.952L1390.18 969.429C1390.64 963.828 1391.22 958.705 1391.9 954.062L1394.1 939.099C1394.27 938.51 1395.13 938.215 1396.66 938.215H1398.42C1398.72 938.19 1399.17 938.203 1399.78 938.252C1400.41 938.276 1400.86 938.289 1401.13 938.289H1404.36C1405.26 938.289 1406.27 938.301 1407.4 938.325C1408.55 938.35 1409.14 938.362 1409.19 938.362H1413.52C1413.73 938.362 1413.88 938.534 1413.95 938.878C1414.03 939.198 1414.09 939.738 1414.14 940.5L1402.34 994.747C1401.85 994.796 1401.27 994.821 1400.58 994.821C1399.9 994.821 1399.28 994.808 1398.72 994.784C1398.15 994.784 1397.51 994.772 1396.77 994.747C1396.04 994.747 1395.44 994.747 1394.98 994.747C1393.98 994.747 1392.45 994.735 1390.4 994.71C1388.37 994.686 1386.85 994.673 1385.82 994.673C1385.7 994.673 1383.32 994.747 1378.68 994.894L1374.13 965.191Z" fill="#0D1923"/>
<path d="M1408.62 994.167C1408.08 993.711 1407.82 992.994 1407.95 992.294L1410.9 977.077C1412 971.086 1414.4 959.716 1418.08 942.967L1418.66 940C1418.76 939.47 1418.92 939.175 1419.13 939.116L1435.89 938.583C1436.13 938.583 1436.62 939.517 1437.35 941.384C1438.11 943.251 1439.01 945.659 1440.06 948.607C1441.14 951.531 1441.9 953.546 1442.34 954.651L1447.46 968.139V953.84C1447.46 952.612 1447.49 950.364 1447.54 947.096C1447.61 943.804 1447.63 941.237 1447.61 939.394C1447.61 938.706 1449.56 938.362 1453.47 938.362C1454.69 938.362 1456.37 938.387 1458.49 938.436C1460.61 938.485 1461.92 938.51 1462.41 938.51H1465.19C1465.58 938.51 1465.78 938.583 1465.78 938.731C1465.93 945.561 1466 955.339 1466 968.066V993.641C1465.83 994.28 1465.05 994.6 1463.66 994.6H1462.7C1461.43 994.6 1459.56 994.624 1457.1 994.673C1454.63 994.722 1452.76 994.747 1451.49 994.747H1440.72C1440.38 994.624 1439.67 993.076 1438.6 990.104C1437.45 986.885 1435.74 982.229 1433.47 976.136C1431.2 970.043 1429.93 966.641 1429.66 965.928C1429.66 967.378 1429.65 969.54 1429.62 972.414C1429.6 975.289 1429.59 977.451 1429.59 978.9C1429.59 979.981 1429.61 981.603 1429.66 983.765C1429.71 985.927 1429.73 987.548 1429.73 988.629V993.273C1429.73 994.403 1429.25 994.968 1428.27 994.968L1409.84 994.619C1409.39 994.61 1408.96 994.451 1408.62 994.167Z" fill="#0D1923"/>
<path d="M1239.92 1019.67V1001.99H1242.45V1019.67H1239.92ZM1256.33 1019.67V1001.99H1258.4L1270.09 1016.51H1269.01V1001.99H1271.53V1019.67H1269.46L1257.77 1005.15H1258.85V1019.67H1256.33ZM1285.41 1019.67V1001.99H1292.86C1294.75 1001.99 1296.41 1002.36 1297.84 1003.1C1299.29 1003.84 1300.41 1004.88 1301.2 1006.21C1302.01 1007.54 1302.41 1009.08 1302.41 1010.83C1302.41 1012.58 1302.01 1014.12 1301.2 1015.45C1300.41 1016.78 1299.29 1017.82 1297.84 1018.56C1296.41 1019.3 1294.75 1019.67 1292.86 1019.67H1285.41ZM1287.94 1017.47H1292.71C1294.18 1017.47 1295.44 1017.19 1296.5 1016.64C1297.58 1016.08 1298.41 1015.31 1299 1014.32C1299.59 1013.31 1299.88 1012.14 1299.88 1010.83C1299.88 1009.5 1299.59 1008.34 1299 1007.34C1298.41 1006.35 1297.58 1005.58 1296.5 1005.02C1295.44 1004.47 1294.18 1004.19 1292.71 1004.19H1287.94V1017.47ZM1322.19 1019.87C1319.87 1019.87 1318.04 1019.21 1316.71 1017.88C1315.38 1016.55 1314.71 1014.6 1314.71 1012.04V1001.99H1317.24V1011.94C1317.24 1013.91 1317.67 1015.35 1318.53 1016.26C1319.4 1017.17 1320.63 1017.62 1322.22 1017.62C1323.82 1017.62 1325.04 1017.17 1325.9 1016.26C1326.78 1015.35 1327.22 1013.91 1327.22 1011.94V1001.99H1329.67V1012.04C1329.67 1014.6 1329 1016.55 1327.67 1017.88C1326.36 1019.21 1324.53 1019.87 1322.19 1019.87ZM1348.58 1019.87C1347.24 1019.87 1345.95 1019.67 1344.72 1019.27C1343.49 1018.84 1342.52 1018.31 1341.82 1017.65L1342.75 1015.68C1343.42 1016.27 1344.28 1016.76 1345.33 1017.14C1346.37 1017.53 1347.46 1017.73 1348.58 1017.73C1349.61 1017.73 1350.44 1017.61 1351.08 1017.37C1351.72 1017.14 1352.2 1016.82 1352.5 1016.41C1352.8 1015.99 1352.95 1015.52 1352.95 1015C1352.95 1014.39 1352.75 1013.9 1352.35 1013.53C1351.96 1013.16 1351.45 1012.87 1350.81 1012.65C1350.18 1012.41 1349.49 1012.21 1348.74 1012.04C1347.98 1011.87 1347.21 1011.68 1346.44 1011.46C1345.68 1011.23 1344.98 1010.93 1344.34 1010.58C1343.72 1010.22 1343.21 1009.75 1342.83 1009.16C1342.44 1008.56 1342.24 1007.78 1342.24 1006.84C1342.24 1005.93 1342.48 1005.1 1342.95 1004.34C1343.44 1003.56 1344.18 1002.95 1345.17 1002.49C1346.18 1002.02 1347.46 1001.79 1349.01 1001.79C1350.04 1001.79 1351.06 1001.92 1352.07 1002.19C1353.08 1002.46 1353.96 1002.85 1354.7 1003.35L1353.86 1005.37C1353.11 1004.87 1352.31 1004.51 1351.46 1004.29C1350.62 1004.05 1349.81 1003.93 1349.01 1003.93C1348.02 1003.93 1347.2 1004.06 1346.56 1004.31C1345.92 1004.57 1345.45 1004.9 1345.15 1005.32C1344.86 1005.74 1344.72 1006.22 1344.72 1006.74C1344.72 1007.36 1344.91 1007.86 1345.3 1008.23C1345.71 1008.6 1346.22 1008.89 1346.84 1009.11C1347.48 1009.33 1348.18 1009.53 1348.94 1009.72C1349.7 1009.89 1350.45 1010.08 1351.21 1010.3C1351.99 1010.52 1352.68 1010.8 1353.31 1011.16C1353.95 1011.51 1354.46 1011.98 1354.85 1012.57C1355.24 1013.16 1355.43 1013.92 1355.43 1014.85C1355.43 1015.74 1355.18 1016.57 1354.7 1017.35C1354.21 1018.1 1353.45 1018.72 1352.42 1019.19C1351.41 1019.64 1350.13 1019.87 1348.58 1019.87ZM1370.97 1019.67V1004.19H1364.91V1001.99H1379.53V1004.19H1373.47V1019.67H1370.97ZM1390.87 1019.67V1001.99H1397.77C1400.06 1001.99 1401.86 1002.54 1403.17 1003.63C1404.48 1004.71 1405.14 1006.22 1405.14 1008.15C1405.14 1009.43 1404.85 1010.54 1404.26 1011.46C1403.67 1012.37 1402.83 1013.07 1401.73 1013.56C1400.64 1014.05 1399.32 1014.29 1397.77 1014.29H1392.26L1393.4 1013.13V1019.67H1390.87ZM1402.69 1019.67L1398.2 1013.25H1400.9L1405.44 1019.67H1402.69ZM1393.4 1013.38L1392.26 1012.14H1397.69C1399.31 1012.14 1400.53 1011.8 1401.35 1011.11C1402.19 1010.4 1402.62 1009.42 1402.62 1008.15C1402.62 1006.89 1402.19 1005.91 1401.35 1005.22C1400.53 1004.53 1399.31 1004.19 1397.69 1004.19H1392.26L1393.4 1002.92V1013.38ZM1417.81 1019.67V1001.99H1420.34V1019.67H1417.81ZM1434.22 1019.67V1001.99H1446.69V1004.19H1436.74V1017.47H1447.05V1019.67H1434.22ZM1436.51 1011.76V1009.62H1445.61V1011.76H1436.51ZM1464.88 1019.87C1463.53 1019.87 1462.24 1019.67 1461.01 1019.27C1459.78 1018.84 1458.81 1018.31 1458.11 1017.65L1459.04 1015.68C1459.72 1016.27 1460.57 1016.76 1461.62 1017.14C1462.66 1017.53 1463.75 1017.73 1464.88 1017.73C1465.9 1017.73 1466.74 1017.61 1467.38 1017.37C1468.02 1017.14 1468.49 1016.82 1468.79 1016.41C1469.09 1015.99 1469.25 1015.52 1469.25 1015C1469.25 1014.39 1469.04 1013.9 1468.64 1013.53C1468.25 1013.16 1467.74 1012.87 1467.1 1012.65C1466.48 1012.41 1465.79 1012.21 1465.03 1012.04C1464.27 1011.87 1463.5 1011.68 1462.73 1011.46C1461.97 1011.23 1461.27 1010.93 1460.63 1010.58C1460.01 1010.22 1459.5 1009.75 1459.12 1009.16C1458.73 1008.56 1458.54 1007.78 1458.54 1006.84C1458.54 1005.93 1458.77 1005.1 1459.24 1004.34C1459.73 1003.56 1460.47 1002.95 1461.47 1002.49C1462.48 1002.02 1463.76 1001.79 1465.31 1001.79C1466.33 1001.79 1467.35 1001.92 1468.36 1002.19C1469.37 1002.46 1470.25 1002.85 1470.99 1003.35L1470.15 1005.37C1469.4 1004.87 1468.6 1004.51 1467.76 1004.29C1466.91 1004.05 1466.1 1003.93 1465.31 1003.93C1464.31 1003.93 1463.5 1004.06 1462.86 1004.31C1462.22 1004.57 1461.74 1004.9 1461.44 1005.32C1461.15 1005.74 1461.01 1006.22 1461.01 1006.74C1461.01 1007.36 1461.21 1007.86 1461.59 1008.23C1462 1008.6 1462.51 1008.89 1463.13 1009.11C1463.77 1009.33 1464.47 1009.53 1465.23 1009.72C1465.99 1009.89 1466.75 1010.08 1467.5 1010.3C1468.28 1010.52 1468.98 1010.8 1469.6 1011.16C1470.24 1011.51 1470.75 1011.98 1471.14 1012.57C1471.53 1013.16 1471.72 1013.92 1471.72 1014.85C1471.72 1015.74 1471.48 1016.57 1470.99 1017.35C1470.5 1018.1 1469.74 1018.72 1468.72 1019.19C1467.7 1019.64 1466.43 1019.87 1464.88 1019.87Z" fill="#0D1923"/>
<path d="M1195.07 954.819V1018.36H1185.73C1181.6 1018.36 1178.25 1015.01 1178.25 1010.88V954.819H1195.07Z" fill="#0067FF"/>
<path d="M1253 962.294C1253 966.422 1249.66 969.769 1245.53 969.769H1228.71V1010.88C1228.71 1015.01 1225.36 1018.36 1221.24 1018.36H1198.81V954.819H1253V962.294Z" fill="#008BFF"/>
<path d="M1245.53 938C1249.66 938 1253 941.347 1253 945.475V951.081H1198.81V938H1245.53Z" fill="#00AEFF"/>
<path d="M1195.07 951.081H1178.25V945.475C1178.25 941.347 1181.6 938 1185.73 938H1195.07V951.081Z" fill="#0044FF"/>
<path d="M576.565 949.5V917.247H581.172V949.5H576.565ZM605.112 949.5V917.247H608.89L630.223 943.741H628.242V917.247H632.849V949.5H629.071L607.738 923.007H609.719V949.5H605.112ZM656.786 949.5V917.247H670.379C673.819 917.247 676.845 917.923 679.455 919.275C682.097 920.626 684.14 922.515 685.583 924.942C687.058 927.368 687.795 930.179 687.795 933.374C687.795 936.568 687.058 939.379 685.583 941.805C684.14 944.232 682.097 946.121 679.455 947.473C676.845 948.824 673.819 949.5 670.379 949.5H656.786ZM661.394 945.491H670.102C672.775 945.491 675.078 944.985 677.013 943.971C678.979 942.957 680.5 941.544 681.575 939.732C682.65 937.889 683.188 935.77 683.188 933.374C683.188 930.947 682.65 928.828 681.575 927.015C680.5 925.203 678.979 923.79 677.013 922.776C675.078 921.763 672.775 921.256 670.102 921.256H661.394V945.491ZM722.498 949.869C718.259 949.869 714.926 948.655 712.499 946.229C710.073 943.802 708.859 940.254 708.859 935.585V917.247H713.467V935.401C713.467 938.995 714.25 941.621 715.817 943.28C717.414 944.939 719.656 945.768 722.544 945.768C725.462 945.768 727.704 944.939 729.271 943.28C730.868 941.621 731.667 938.995 731.667 935.401V917.247H736.136V935.585C736.136 940.254 734.923 943.802 732.496 946.229C730.1 948.655 726.767 949.869 722.498 949.869ZM769.265 949.869C766.808 949.869 764.458 949.5 762.215 948.763C759.973 947.995 758.207 947.012 756.917 945.814L758.622 942.22C759.85 943.295 761.417 944.186 763.321 944.892C765.226 945.599 767.207 945.952 769.265 945.952C771.139 945.952 772.659 945.737 773.826 945.307C774.994 944.877 775.854 944.293 776.407 943.556C776.96 942.788 777.236 941.928 777.236 940.976C777.236 939.87 776.867 938.979 776.13 938.304C775.424 937.628 774.487 937.09 773.32 936.691C772.183 936.261 770.924 935.892 769.541 935.585C768.159 935.278 766.761 934.925 765.349 934.526C763.966 934.095 762.692 933.558 761.524 932.913C760.388 932.268 759.466 931.408 758.76 930.333C758.053 929.227 757.7 927.814 757.7 926.094C757.7 924.435 758.13 922.915 758.99 921.532C759.881 920.119 761.232 918.998 763.045 918.169C764.888 917.309 767.222 916.879 770.048 916.879C771.922 916.879 773.78 917.124 775.623 917.616C777.466 918.107 779.064 918.814 780.415 919.735L778.895 923.421C777.512 922.5 776.053 921.839 774.518 921.44C772.982 921.01 771.492 920.795 770.048 920.795C768.236 920.795 766.746 921.025 765.579 921.486C764.412 921.947 763.552 922.561 762.999 923.329C762.476 924.097 762.215 924.957 762.215 925.909C762.215 927.046 762.569 927.952 763.275 928.628C764.012 929.304 764.949 929.841 766.086 930.241C767.253 930.64 768.528 931.008 769.91 931.346C771.292 931.653 772.674 932.007 774.057 932.406C775.47 932.805 776.744 933.328 777.881 933.973C779.048 934.618 779.985 935.478 780.692 936.553C781.398 937.628 781.751 939.01 781.751 940.7C781.751 942.328 781.306 943.848 780.415 945.261C779.524 946.643 778.142 947.764 776.268 948.625C774.425 949.454 772.091 949.869 769.265 949.869ZM808.721 949.5V921.256H797.662V917.247H824.34V921.256H813.282V949.5H808.721ZM843.642 949.5V917.247H856.22C860.398 917.247 863.684 918.246 866.08 920.242C868.476 922.208 869.674 924.957 869.674 928.49C869.674 930.824 869.137 932.836 868.062 934.526C866.986 936.184 865.451 937.459 863.454 938.35C861.457 939.241 859.046 939.686 856.22 939.686H846.176L848.249 937.566V949.5H843.642ZM865.205 949.5L857.003 937.797H861.934L870.227 949.5H865.205ZM848.249 938.027L846.176 935.77H856.082C859.031 935.77 861.258 935.14 862.763 933.88C864.299 932.59 865.067 930.793 865.067 928.49C865.067 926.186 864.299 924.404 862.763 923.145C861.258 921.886 859.031 921.256 856.082 921.256H846.176L848.249 918.952V938.027ZM891.402 949.5V917.247H896.009V949.5H891.402ZM919.949 949.5V917.247H942.71V921.256H924.556V945.491H943.355V949.5H919.949ZM924.141 935.078V931.162H940.728V935.078H924.141ZM974.498 949.869C972.041 949.869 969.691 949.5 967.449 948.763C965.206 947.995 963.44 947.012 962.15 945.814L963.855 942.22C965.083 943.295 966.65 944.186 968.554 944.892C970.459 945.599 972.44 945.952 974.498 945.952C976.372 945.952 977.892 945.737 979.06 945.307C980.227 944.877 981.087 944.293 981.64 943.556C982.193 942.788 982.469 941.928 982.469 940.976C982.469 939.87 982.101 938.979 981.363 938.304C980.657 937.628 979.72 937.09 978.553 936.691C977.416 936.261 976.157 935.892 974.775 935.585C973.392 935.278 971.995 934.925 970.582 934.526C969.199 934.095 967.925 933.558 966.757 932.913C965.621 932.268 964.699 931.408 963.993 930.333C963.286 929.227 962.933 927.814 962.933 926.094C962.933 924.435 963.363 922.915 964.223 921.532C965.114 920.119 966.466 918.998 968.278 918.169C970.121 917.309 972.455 916.879 975.281 916.879C977.155 916.879 979.013 917.124 980.857 917.616C982.7 918.107 984.297 918.814 985.648 919.735L984.128 923.421C982.746 922.5 981.287 921.839 979.751 921.44C978.215 921.01 976.725 920.795 975.281 920.795C973.469 920.795 971.979 921.025 970.812 921.486C969.645 921.947 968.785 922.561 968.232 923.329C967.71 924.097 967.449 924.957 967.449 925.909C967.449 927.046 967.802 927.952 968.508 928.628C969.246 929.304 970.182 929.841 971.319 930.241C972.486 930.64 973.761 931.008 975.143 931.346C976.525 931.653 977.908 932.007 979.29 932.406C980.703 932.805 981.978 933.328 983.114 933.973C984.281 934.618 985.218 935.478 985.925 936.553C986.631 937.628 986.985 939.01 986.985 940.7C986.985 942.328 986.539 943.848 985.648 945.261C984.758 946.643 983.375 947.764 981.502 948.625C979.659 949.454 977.324 949.869 974.498 949.869Z" fill="#FFF8F2"/>
<path d="M495.682 831.682V947.591H478.636C471.105 947.591 465 941.486 465 933.955V831.682H495.682Z" fill="#FF9800"/>
<path d="M601.364 845.318C601.364 852.849 595.258 858.955 587.727 858.955H557.045V933.955C557.045 941.486 550.94 947.591 543.409 947.591H502.5V831.682H601.364V845.318Z" fill="#FF7400"/>
<path d="M587.727 801C595.258 801 601.364 807.105 601.364 814.636V824.864H502.5V801H587.727Z" fill="#FF5100"/>
<path d="M495.682 824.864H465V814.636C465 807.105 471.105 801 478.636 801H495.682V824.864Z" fill="#FFBB00"/>
<path d="M609.146 906.792C604.219 906.792 599.714 906.459 595.63 905.793C591.59 905.171 587.684 904.062 583.911 902.464C580.182 900.821 577.031 898.713 574.456 896.138C571.882 893.564 569.817 890.212 568.264 886.084C566.755 881.956 566 877.184 566 871.768C566 869.371 566.71 868.173 568.131 868.173H598.493C599.869 868.173 600.89 868.506 601.556 869.172C602.222 869.838 602.621 870.659 602.754 871.635C602.887 872.612 602.998 873.588 603.087 874.565C603.22 875.542 603.553 876.363 604.086 877.029C604.663 877.694 605.551 878.027 606.749 878.027C607.859 878.027 608.747 877.739 609.413 877.162C610.123 876.54 610.611 875.63 610.877 874.432C611.188 873.233 611.366 872.19 611.41 871.302C611.499 870.415 611.543 869.283 611.543 867.907V867.374C611.499 864.178 611.366 858.008 611.144 848.864C610.966 839.719 610.877 832.573 610.877 827.424V804.785C610.877 803.498 611.81 802.743 613.674 802.521C615.094 802.521 617.225 802.544 620.066 802.588C622.907 802.632 625.038 802.655 626.458 802.655C628.589 802.655 631.74 802.632 635.913 802.588C640.086 802.544 643.237 802.521 645.368 802.521H651.627C652.648 802.521 653.358 803.143 653.757 804.386C653.669 805.185 653.624 806.272 653.624 807.648C653.669 809.024 653.669 810.112 653.624 810.911V814.24C653.18 827.868 652.958 840.03 652.958 850.728V871.635C652.958 875.542 652.426 879.159 651.36 882.488C650.295 885.818 648.875 888.659 647.099 891.011C645.324 893.364 643.193 895.495 640.707 897.403C638.266 899.268 635.735 900.777 633.116 901.931C630.498 903.085 627.723 904.039 624.793 904.794C621.908 905.549 619.178 906.059 616.604 906.325C614.074 906.636 611.588 906.792 609.146 906.792Z" fill="#FFF8F2"/>
<path d="M655.121 904.17C654.454 903.391 653.989 902.031 654.221 901.032C656.463 891.374 659.142 882.461 661.87 872.398C664.746 861.789 668.333 849.105 672.63 834.348C676.97 819.543 679.929 809.308 681.507 803.642C682.001 802.732 682.333 802.185 682.503 802L694.912 802.655C697.531 802.655 701.392 802.61 706.497 802.521C711.602 802.433 715.464 802.388 718.083 802.388H729.269C729.935 802.388 730.49 802.41 730.933 802.455C731.377 802.455 731.91 802.499 732.531 802.588C733.153 802.677 733.641 802.81 733.996 802.987C734.396 803.165 734.729 803.431 734.995 803.786C735.261 804.142 735.395 804.563 735.395 805.052L761.824 902.33C761.824 903.218 761.491 903.817 760.825 904.128C760.204 904.483 759.005 904.661 757.23 904.661H751.104C749.328 904.661 746.687 904.683 743.18 904.727C739.674 904.772 741.298 904.794 739.523 904.794C738.99 904.794 737.903 904.816 736.26 904.861C734.662 904.949 733.308 904.972 732.199 904.927C731.089 904.927 729.846 904.861 728.47 904.727C727.138 904.639 726.051 904.395 725.207 903.995C724.408 903.64 723.898 903.152 723.676 902.53V898.136C723.232 895.916 722.455 893.874 721.345 892.01C720.236 890.146 719.059 889.213 717.816 889.213H694.912L691.449 903.329C690.961 904.395 688.475 904.927 683.992 904.927H678.665C676.756 904.927 673.915 904.994 670.142 905.127C666.369 905.26 666.595 905.177 664.688 905.259L662.825 905.339C662.116 905.37 660.986 905.228 659.435 905.339C658.617 905.399 657.871 905.261 657.225 905.129C656.336 904.947 655.712 904.859 655.121 904.17ZM697.175 862.647L699.04 865.776H703.434C706.985 865.776 710.226 865.576 713.156 865.177C716.13 864.733 717.617 864.045 717.617 863.113L709.027 824.76C708.228 824.76 707.141 826.27 705.765 829.288C704.433 832.306 703.346 835.724 702.502 839.542L697.175 862.647Z" fill="#FFF8F2"/>
<path d="M822.526 851.128C822.349 852.326 821.993 855.145 821.461 859.584C820.972 864.023 820.418 868.683 819.796 873.566C819.175 878.449 818.487 883.354 817.732 888.281C816.977 893.164 816.112 897.204 815.135 900.4C814.159 903.596 813.182 905.194 812.206 905.194C810.297 905.194 807.478 905.149 803.749 905.06C800.021 904.972 797.202 904.927 795.293 904.927C786.726 904.927 780.325 905.785 772.856 904.417C772.215 904.15 771.628 903.7 771.096 903.069C770.607 902.435 770.177 901.664 769.803 900.755C769.474 899.843 769.197 899.039 768.971 898.342C768.787 897.598 768.569 896.679 768.316 895.584C768.105 894.441 767.941 893.674 767.825 893.281C757.673 857.267 751.419 835.359 749.063 827.555L742.891 805.552C742.807 804.312 743.369 803.428 744.579 802.901C745.648 802.917 753.035 802.388 755.343 802.388H760.67C761.735 802.388 763.267 802.344 765.264 802.255C767.262 802.166 768.704 802.122 769.592 802.122C770.435 802.077 771.678 802.1 773.321 802.188C774.963 802.233 776.028 802.255 776.517 802.255H780.379C780.822 802.344 781.488 802.388 782.376 802.388H784.374C785.173 802.61 785.972 804.142 786.771 806.982C787.57 809.823 788.324 813.73 789.034 818.701C789.745 823.673 790.322 828.023 790.766 831.752C791.21 835.436 791.698 839.919 792.23 845.202C792.808 850.439 793.096 853.103 793.096 853.192L801.552 802.521C803.683 802.699 805.37 802.788 806.613 802.788H810.741C814.336 802.788 819.53 802.765 826.321 802.721C833.157 802.677 838.262 802.655 841.636 802.655C842.568 802.655 843.145 803.01 843.367 803.72L851.69 858.785C852.533 848.664 853.576 839.409 854.819 831.019L858.814 803.986C859.125 802.921 860.679 802.388 863.475 802.388H866.671C867.204 802.344 868.025 802.366 869.135 802.455C870.289 802.499 871.11 802.521 871.598 802.521H877.458C879.1 802.521 880.942 802.544 882.984 802.588C885.07 802.632 886.158 802.655 886.247 802.655H894.104C894.503 802.655 894.77 802.965 894.903 803.587C895.036 804.164 895.147 805.14 895.236 806.516L873.796 904.528C872.908 904.617 871.843 904.661 870.6 904.661C869.357 904.661 868.225 904.639 867.204 904.594C866.183 904.594 865.007 904.572 863.675 904.528C862.343 904.528 861.256 904.528 860.412 904.528C858.592 904.528 855.818 904.506 852.089 904.461C848.405 904.417 845.631 904.395 843.766 904.395C843.544 904.395 839.216 904.528 830.783 904.794L822.526 851.128Z" fill="#FFF8F2"/>
<path d="M885.218 903.484C884.22 902.658 883.753 901.354 884 900.083L889.342 872.602C891.355 861.778 895.71 841.236 902.407 810.974L903.448 805.614C903.635 804.656 903.919 804.123 904.302 804.017L934.768 803.054C935.212 803.054 936.1 804.741 937.431 808.114C938.808 811.488 940.45 815.838 942.359 821.165C944.312 826.447 945.688 830.087 946.487 832.085L955.809 856.454V830.62C955.809 828.4 955.853 824.339 955.942 818.435C956.075 812.487 956.119 807.848 956.075 804.519C956.075 803.276 959.626 802.655 966.728 802.655C968.948 802.655 971.988 802.699 975.85 802.788C979.712 802.876 982.087 802.921 982.975 802.921H988.035C988.745 802.921 989.1 803.054 989.1 803.32C989.367 815.661 989.5 833.327 989.5 856.321V902.53C989.189 903.684 987.769 904.261 985.239 904.261H983.507C981.199 904.261 977.803 904.306 973.32 904.395C968.837 904.483 965.441 904.528 963.133 904.528H943.557C942.936 904.306 941.648 901.509 939.695 896.138C937.609 890.323 934.502 881.911 930.374 870.903C926.245 859.894 923.937 853.746 923.449 852.459C923.449 855.078 923.427 858.984 923.382 864.178C923.338 869.371 923.316 873.278 923.316 875.897C923.316 877.85 923.36 880.779 923.449 884.686C923.538 888.592 923.582 891.522 923.582 893.475V901.864C923.582 903.906 922.694 904.927 920.919 904.927L887.407 904.295C886.606 904.28 885.835 903.994 885.218 903.484Z" fill="#FFF8F2"/>
<rect width="366" height="1080" fill="#1F1B16"/>
<path d="M188.021 213.308C190.341 214.758 193.143 215.227 195.809 214.612C198.474 213.997 200.787 212.348 202.237 210.028C203.687 207.708 204.156 204.906 203.541 202.24C202.926 199.575 201.277 197.262 198.956 195.812C198.956 195.812 198.956 195.812 198.956 195.812C194.698 193.15 190.439 190.489 186.18 187.827C169.948 177.682 153.715 167.536 137.482 157.391C135.722 156.291 133.961 155.192 132.199 154.096C105.373 135.088 65.2444 164.171 74.076 194.931C77.9968 212.666 81.839 230.41 84.9977 248.137C86.5577 256.974 87.9699 265.873 88.8464 274.607C89.2746 278.968 89.5732 283.299 89.5131 287.372C89.4819 289.382 89.3416 291.384 89.0575 292.927C88.9223 293.688 88.728 294.347 88.6234 294.612C88.5794 294.738 88.5621 294.749 88.7003 294.594C88.8293 294.453 89.1736 294.1 89.7754 293.81C90.0103 293.696 90.2731 293.601 90.5347 293.538C90.4573 293.586 90.4543 293.667 90.1567 293.688C89.8708 293.708 89.3299 293.611 88.6661 293.34C87.3144 292.796 85.6146 291.647 83.959 290.251C80.6187 287.427 77.3291 283.746 74.3327 279.834C71.3744 275.927 68.5452 271.686 66.5655 267.22C66.4718 266.998 66.2796 266.812 66.0493 266.698C65.818 266.585 65.5675 266.554 65.3348 266.617C65.1021 266.68 64.901 266.832 64.7577 267.046C64.6154 267.26 64.5425 267.517 64.5732 267.756C64.5732 267.756 64.5732 267.756 64.5732 267.756C65.3459 272.901 66.6384 277.941 68.2248 282.975C69.8685 288.027 71.8312 293.062 75.0766 297.926C76.7378 300.349 78.6751 302.751 81.6593 304.867C84.4766 306.918 89.3349 308.762 94.2476 307.462C94.9487 307.281 95.6338 307.025 96.2743 306.707C102.647 302.763 102.496 298.791 103.456 296.029C104.116 293.137 104.362 290.515 104.523 287.985C104.815 282.929 104.678 278.176 104.432 273.431C103.911 263.979 102.867 254.733 101.681 245.576C99.2678 227.241 96.1728 209.138 92.8597 191.12C89.1645 175.423 108.822 162.492 121.27 171.581C123.028 172.685 124.787 173.787 126.547 174.887C142.78 185.032 159.013 195.178 175.245 205.323C179.504 207.985 183.763 210.647 188.021 213.308Z" fill="#FAD400"/>
<path d="M139.43 284.204C156.5 297.027 177.718 304.626 200.711 304.626C213.209 304.626 225.181 302.379 236.249 298.271C241.851 307.679 245.069 318.672 245.069 330.417C245.069 365.171 216.896 393.345 182.142 393.345C147.387 393.345 119.213 365.171 119.213 330.417C119.213 312.149 126.998 295.7 139.43 284.204ZM179.603 281.233C179.525 281.213 179.447 281.193 179.369 281.172L179.277 281.146C179.386 281.176 179.494 281.204 179.603 281.233ZM182.142 267.488C191.55 267.488 200.476 269.554 208.492 273.256C205.937 273.534 203.34 273.678 200.711 273.678C190.926 273.678 181.603 271.703 173.117 268.131C176.064 267.708 179.077 267.488 182.142 267.488Z" fill="white"/>
<path d="M200.71 121C245.72 121 282.207 157.487 282.207 202.497C282.207 247.507 245.72 283.994 200.71 283.994C155.7 283.994 119.213 247.507 119.213 202.497C119.213 157.488 155.7 121 200.71 121ZM230.627 147.822C212.395 147.822 197.615 162.601 197.615 180.833C197.615 199.065 212.395 213.845 230.627 213.845C248.859 213.845 263.639 199.065 263.639 180.833C263.639 162.601 248.859 147.822 230.627 147.822Z" fill="#FAD400"/>
<path d="M78.5265 417.144C83.5332 417.144 87.8797 417.969 91.566 419.62C95.3073 421.27 98.1683 423.636 100.149 426.717C102.13 429.798 103.12 433.457 103.12 437.694C103.12 441.875 102.13 445.534 100.149 448.67C98.1683 451.751 95.3073 454.117 91.566 455.767C87.8797 457.418 83.5332 458.243 78.5265 458.243H65.4869V474.914H54.7582V417.144H78.5265ZM78.0313 449.165C82.7079 449.165 86.2567 448.175 88.6775 446.194C91.0983 444.213 92.3088 441.38 92.3088 437.694C92.3088 434.007 91.0983 431.174 88.6775 429.193C86.2567 427.212 82.7079 426.222 78.0313 426.222H65.4869V449.165H78.0313ZM123.223 475.492C118.656 475.492 115.08 474.254 112.494 471.778C109.963 469.247 108.698 465.698 108.698 461.132V413.678H119.014V460.389C119.014 464.791 121.077 466.991 125.204 466.991C126.579 466.991 127.817 466.716 128.917 466.166L129.413 474.419C127.487 475.134 125.424 475.492 123.223 475.492ZM175.789 430.844V474.914H165.968V469.302C164.317 471.283 162.254 472.823 159.778 473.924C157.302 474.969 154.634 475.492 151.773 475.492C145.886 475.492 141.236 473.869 137.825 470.623C134.469 467.321 132.791 462.452 132.791 456.015V430.844H143.107V454.612C143.107 458.573 143.987 461.544 145.748 463.525C147.564 465.451 150.122 466.414 153.423 466.414C157.11 466.414 160.026 465.286 162.171 463.03C164.372 460.719 165.472 457.418 165.472 453.126V430.844H175.789ZM240.793 430.349C246.35 430.349 250.752 431.972 253.998 435.218C257.244 438.409 258.867 443.223 258.867 449.66V474.914H248.551V450.981C248.551 447.129 247.698 444.241 245.993 442.315C244.287 440.335 241.839 439.344 238.648 439.344C235.181 439.344 232.403 440.5 230.312 442.81C228.222 445.066 227.176 448.312 227.176 452.549V474.914H216.86V450.981C216.86 447.129 216.007 444.241 214.302 442.315C212.596 440.335 210.148 439.344 206.957 439.344C203.435 439.344 200.629 440.472 198.539 442.728C196.503 444.984 195.485 448.257 195.485 452.549V474.914H185.169V430.844H194.99V436.456C196.641 434.475 198.704 432.962 201.18 431.917C203.655 430.871 206.406 430.349 209.433 430.349C212.734 430.349 215.65 430.981 218.181 432.247C220.766 433.457 222.802 435.273 224.288 437.694C226.103 435.383 228.442 433.595 231.303 432.329C234.164 431.009 237.327 430.349 240.793 430.349ZM312.232 430.844V474.914H302.411V469.22C300.705 471.31 298.587 472.878 296.056 473.924C293.58 474.969 290.829 475.492 287.803 475.492C283.512 475.492 279.66 474.556 276.249 472.686C272.893 470.815 270.252 468.174 268.326 464.763C266.456 461.352 265.52 457.39 265.52 452.879C265.52 448.367 266.456 444.433 268.326 441.077C270.252 437.666 272.893 435.025 276.249 433.155C279.66 431.284 283.512 430.349 287.803 430.349C290.664 430.349 293.278 430.844 295.643 431.834C298.064 432.824 300.155 434.282 301.916 436.208V430.844H312.232ZM288.959 466.661C292.755 466.661 295.891 465.396 298.367 462.865C300.843 460.334 302.081 457.005 302.081 452.879C302.081 448.752 300.843 445.424 298.367 442.893C295.891 440.362 292.755 439.097 288.959 439.097C285.162 439.097 282.026 440.362 279.55 442.893C277.13 445.424 275.919 448.752 275.919 452.879C275.919 457.005 277.13 460.334 279.55 462.865C282.026 465.396 285.162 466.661 288.959 466.661Z" fill="#FAD400"/>
<path d="M83.9507 903.832C84.6465 904.267 85.4866 904.407 86.2862 904.223C87.0857 904.038 87.7792 903.544 88.2141 902.848C88.649 902.152 88.7897 901.312 88.6052 900.512C88.4207 899.713 87.9261 899.019 87.2302 898.584C87.2302 898.584 87.2302 898.584 87.2302 898.584C85.9438 897.78 84.6574 896.976 83.371 896.172C78.4675 893.108 73.5641 890.043 68.6606 886.978C68.1042 886.631 67.5475 886.284 66.9904 885.937C58.9453 880.237 46.9094 888.957 49.5584 898.185C50.7449 903.551 51.9079 908.921 52.8649 914.286C53.3376 916.96 53.7657 919.653 54.0324 922.297C54.1628 923.617 54.2541 924.93 54.2375 926.163C54.2286 926.775 54.1874 927.38 54.102 927.852C54.061 928.086 54.0026 928.288 53.9687 928.375C53.9413 928.474 53.9315 928.353 54.2899 928.153C54.3646 928.115 54.4499 928.084 54.5349 928.063C54.5095 928.079 54.5062 928.103 54.4147 928.109C54.3268 928.114 54.1626 928.085 53.9617 928.002C53.5527 927.837 53.0398 927.49 52.5407 927.068C51.5335 926.215 50.5431 925.104 49.6409 923.924C48.7487 922.743 47.8955 921.461 47.2988 920.111C47.2707 920.045 47.2131 919.989 47.144 919.955C47.0746 919.921 46.9994 919.912 46.9296 919.93C46.8597 919.949 46.7994 919.995 46.7564 920.059C46.7137 920.123 46.692 920.2 46.7012 920.272C46.7012 920.272 46.7012 920.272 46.7012 920.272C46.936 921.826 47.3283 923.347 47.8093 924.867C48.3067 926.388 48.9001 927.905 49.8791 929.369C50.3801 930.099 50.9643 930.822 51.8626 931.458C52.711 932.075 54.1715 932.629 55.6482 932.238C55.8774 932.179 56.101 932.093 56.3079 931.986C58.1845 930.781 58.1392 929.602 58.4236 928.767C58.6193 927.896 58.6924 927.107 58.7398 926.34C58.8256 924.815 58.783 923.376 58.7072 921.941C58.5472 919.083 58.2299 916.285 57.8694 913.515C57.1365 907.968 56.1979 902.492 55.1937 897.04C54.0833 892.334 59.9794 888.454 63.713 891.181C64.2687 891.53 64.8247 891.878 65.381 892.226C70.2845 895.29 75.188 898.355 80.0914 901.42C81.3778 902.224 82.6642 903.028 83.9507 903.832Z" fill="white"/>
<path d="M69.2964 925.22C74.4424 929.084 80.838 931.375 87.769 931.375C91.535 931.375 95.1426 930.697 98.478 929.46C100.174 932.302 101.15 935.624 101.15 939.175C101.15 949.659 92.6501 958.159 82.1655 958.159C71.6811 958.159 63.1821 949.659 63.1821 939.175C63.1822 933.656 65.537 928.688 69.2964 925.22ZM88.2563 925.164C88.0943 925.168 87.9319 925.17 87.769 925.17C87.5569 925.17 87.3452 925.166 87.1343 925.161L87.769 925.169C87.9318 925.169 88.0943 925.168 88.2563 925.164ZM82.1655 920.191C85.0138 920.191 87.7155 920.819 90.1401 921.943C89.3614 922.029 88.5705 922.075 87.769 922.075C84.8052 922.075 81.9814 921.476 79.4126 920.391C80.3114 920.26 81.2305 920.191 82.1655 920.191Z" fill="white"/>
<path d="M87.7681 876C101.346 876 112.354 887.008 112.354 900.586C112.354 914.164 101.346 925.172 87.7681 925.172C74.1898 925.172 63.1823 914.164 63.1821 900.586C63.1821 887.008 74.1897 876 87.7681 876ZM96.7925 884.09C91.2924 884.09 86.8335 888.549 86.8335 894.049C86.8335 899.549 91.2924 904.008 96.7925 904.008C102.293 904.008 106.751 899.549 106.751 894.049C106.751 888.549 102.293 884.09 96.7925 884.09Z" fill="white"/>
<path d="M148.941 886.572C152.445 886.572 155.486 887.15 158.066 888.305C160.684 889.46 162.686 891.116 164.072 893.272C165.459 895.428 166.152 897.988 166.152 900.953C166.152 903.879 165.459 906.44 164.072 908.634C162.686 910.79 160.684 912.446 158.066 913.601C155.486 914.756 152.445 915.334 148.941 915.334H139.816V927H132.308V886.572H148.941ZM148.594 908.981C151.867 908.981 154.351 908.288 156.045 906.902C157.739 905.516 158.586 903.533 158.586 900.953C158.586 898.373 157.739 896.39 156.045 895.004C154.351 893.618 151.867 892.925 148.594 892.925H139.816V908.981H148.594ZM180.22 927.404C177.024 927.404 174.521 926.538 172.712 924.805C170.941 923.034 170.055 920.551 170.055 917.355V884.147H177.274V916.835C177.274 919.916 178.718 921.456 181.606 921.456C182.568 921.456 183.435 921.263 184.205 920.878L184.551 926.653C183.204 927.154 181.76 927.404 180.22 927.404ZM217.005 896.159V927H210.133V923.073C208.978 924.459 207.534 925.537 205.801 926.307C204.068 927.039 202.201 927.404 200.199 927.404C196.079 927.404 192.826 926.268 190.439 923.997C188.09 921.687 186.916 918.279 186.916 913.774V896.159H194.135V912.793C194.135 915.565 194.751 917.644 195.983 919.03C197.254 920.378 199.044 921.051 201.354 921.051C203.934 921.051 205.974 920.262 207.476 918.683C209.016 917.066 209.786 914.756 209.786 911.753V896.159H217.005ZM262.496 895.813C266.385 895.813 269.465 896.949 271.737 899.22C274.008 901.453 275.144 904.822 275.144 909.327V927H267.925V910.251C267.925 907.556 267.328 905.535 266.135 904.187C264.941 902.801 263.228 902.108 260.995 902.108C258.569 902.108 256.624 902.917 255.161 904.534C253.698 906.112 252.967 908.384 252.967 911.349V927H245.747V910.251C245.747 907.556 245.151 905.535 243.957 904.187C242.764 902.801 241.05 902.108 238.817 902.108C236.353 902.108 234.389 902.897 232.926 904.476C231.502 906.055 230.789 908.345 230.789 911.349V927H223.57V896.159H230.443V900.087C231.598 898.701 233.042 897.642 234.774 896.91C236.507 896.179 238.432 895.813 240.55 895.813C242.86 895.813 244.9 896.256 246.672 897.141C248.481 897.988 249.906 899.259 250.945 900.953C252.216 899.336 253.852 898.084 255.854 897.199C257.857 896.275 260.07 895.813 262.496 895.813ZM312.489 896.159V927H305.616V923.015C304.423 924.478 302.94 925.575 301.169 926.307C299.437 927.039 297.511 927.404 295.394 927.404C292.391 927.404 289.695 926.75 287.308 925.441C284.96 924.132 283.111 922.283 281.764 919.896C280.455 917.509 279.8 914.737 279.8 911.58C279.8 908.422 280.455 905.67 281.764 903.321C283.111 900.934 284.96 899.086 287.308 897.776C289.695 896.467 292.391 895.813 295.394 895.813C297.396 895.813 299.225 896.159 300.88 896.852C302.575 897.545 304.038 898.566 305.27 899.913V896.159H312.489ZM296.202 921.225C298.859 921.225 301.054 920.339 302.786 918.568C304.519 916.797 305.385 914.467 305.385 911.58C305.385 908.692 304.519 906.363 302.786 904.591C301.054 902.82 298.859 901.935 296.202 901.935C293.546 901.935 291.351 902.82 289.618 904.591C287.924 906.363 287.077 908.692 287.077 911.58C287.077 914.467 287.924 916.797 289.618 918.568C291.351 920.339 293.546 921.225 296.202 921.225Z" fill="white"/>
<path d="M136.399 947.418C135.437 947.418 134.511 947.292 133.622 947.04C132.733 946.774 132.037 946.44 131.533 946.04L132.422 944.352C132.94 944.722 133.57 945.018 134.311 945.241C135.051 945.463 135.799 945.574 136.555 945.574C138.421 945.574 139.355 945.041 139.355 943.974C139.355 943.618 139.229 943.337 138.977 943.13C138.725 942.922 138.407 942.774 138.021 942.685C137.651 942.582 137.118 942.47 136.422 942.352C135.474 942.204 134.696 942.033 134.089 941.841C133.496 941.648 132.985 941.322 132.555 940.863C132.126 940.404 131.911 939.76 131.911 938.93C131.911 937.863 132.355 937.012 133.244 936.375C134.133 935.723 135.325 935.397 136.822 935.397C137.607 935.397 138.392 935.493 139.177 935.686C139.962 935.879 140.606 936.138 141.11 936.464L140.199 938.152C139.236 937.53 138.103 937.219 136.799 937.219C135.896 937.219 135.207 937.367 134.733 937.664C134.259 937.96 134.022 938.352 134.022 938.841C134.022 939.226 134.155 939.53 134.422 939.752C134.688 939.974 135.014 940.137 135.399 940.241C135.799 940.345 136.355 940.463 137.066 940.597C138.014 940.76 138.777 940.937 139.355 941.13C139.947 941.308 140.451 941.619 140.866 942.063C141.28 942.507 141.488 943.13 141.488 943.93C141.488 944.996 141.029 945.848 140.11 946.485C139.207 947.107 137.97 947.418 136.399 947.418Z" fill="white"/>
<path d="M158.13 946.596C157.819 946.863 157.434 947.07 156.975 947.218C156.515 947.351 156.041 947.418 155.553 947.418C154.367 947.418 153.449 947.1 152.797 946.463C152.145 945.826 151.82 944.915 151.82 943.73V935H153.953V937.578H157.33V939.333H153.953V943.641C153.953 944.278 154.108 944.767 154.419 945.107C154.745 945.448 155.204 945.618 155.797 945.618C156.449 945.618 157.004 945.433 157.463 945.063L158.13 946.596Z" fill="white"/>
<path d="M179.194 935.508V947.285H177.149V945.418C176.675 946.07 176.075 946.566 175.349 946.907C174.624 947.248 173.824 947.418 172.95 947.418C171.809 947.418 170.787 947.166 169.883 946.663C168.98 946.159 168.269 945.455 167.75 944.552C167.247 943.633 166.995 942.582 166.995 941.396C166.995 940.211 167.247 939.167 167.75 938.263C168.269 937.36 168.98 936.656 169.883 936.153C170.787 935.649 171.809 935.397 172.95 935.397C173.794 935.397 174.572 935.56 175.283 935.886C175.994 936.197 176.586 936.664 177.06 937.286V935.508H179.194ZM173.127 945.552C173.868 945.552 174.542 945.381 175.149 945.041C175.757 944.685 176.231 944.196 176.572 943.574C176.912 942.937 177.083 942.211 177.083 941.396C177.083 940.582 176.912 939.863 176.572 939.241C176.231 938.604 175.757 938.115 175.149 937.775C174.542 937.434 173.868 937.264 173.127 937.264C172.372 937.264 171.691 937.434 171.083 937.775C170.491 938.115 170.017 938.604 169.661 939.241C169.32 939.863 169.15 940.582 169.15 941.396C169.15 942.211 169.32 942.937 169.661 943.574C170.017 944.196 170.491 944.685 171.083 945.041C171.691 945.381 172.372 945.552 173.127 945.552Z" fill="white"/>
<path d="M197.206 946.596C196.895 946.863 196.51 947.07 196.051 947.218C195.591 947.351 195.117 947.418 194.628 947.418C193.443 947.418 192.525 947.1 191.873 946.463C191.221 945.826 190.895 944.915 190.895 943.73V934.921H193.029V937.499H196.406V939.254H193.029V943.641C193.029 944.278 193.184 944.767 193.495 945.107C193.821 945.448 194.28 945.618 194.873 945.618C195.525 945.618 196.08 945.433 196.539 945.063L197.206 946.596Z" fill="white"/>
<path d="M207.55 939.499H209.683V947.285H207.55V939.499ZM208.617 937.233C208.202 937.233 207.854 937.099 207.572 936.833C207.306 936.566 207.172 936.24 207.172 935.855C207.172 935.47 207.306 935.144 207.572 934.877C207.854 934.596 208.202 934.455 208.617 934.455C209.031 934.455 209.372 934.588 209.639 934.855C209.92 935.107 210.061 935.425 210.061 935.81C210.061 936.21 209.92 936.551 209.639 936.833C209.372 937.099 209.031 937.233 208.617 937.233Z" fill="white"/>
<path d="M226.577 947.418C225.407 947.418 224.355 947.159 223.422 946.64C222.489 946.122 221.755 945.411 221.222 944.507C220.704 943.589 220.444 942.552 220.444 941.396C220.444 940.241 220.704 939.212 221.222 938.308C221.755 937.389 222.489 936.678 223.422 936.175C224.355 935.656 225.407 935.397 226.577 935.397C227.747 935.397 228.792 935.656 229.71 936.175C230.643 936.678 231.369 937.389 231.888 938.308C232.421 939.212 232.687 940.241 232.687 941.396C232.687 942.552 232.421 943.589 231.888 944.507C231.369 945.411 230.643 946.122 229.71 946.64C228.792 947.159 227.747 947.418 226.577 947.418ZM226.577 945.552C227.332 945.552 228.006 945.381 228.599 945.041C229.206 944.685 229.68 944.196 230.021 943.574C230.362 942.937 230.532 942.211 230.532 941.396C230.532 940.582 230.362 939.863 230.021 939.241C229.68 938.604 229.206 938.115 228.599 937.775C228.006 937.434 227.332 937.264 226.577 937.264C225.822 937.264 225.14 937.434 224.533 937.775C223.94 938.115 223.466 938.604 223.111 939.241C222.77 939.863 222.6 940.582 222.6 941.396C222.6 942.211 222.77 942.937 223.111 943.574C223.466 944.196 223.94 944.685 224.533 945.041C225.14 945.381 225.822 945.552 226.577 945.552Z" fill="white"/>
<path d="M249.703 935.397C251.199 935.397 252.384 935.834 253.258 936.708C254.147 937.567 254.591 938.834 254.591 940.508V947.285H252.458V940.752C252.458 939.611 252.184 938.752 251.636 938.175C251.088 937.597 250.303 937.308 249.281 937.308C248.125 937.308 247.214 937.649 246.548 938.33C245.881 938.997 245.548 939.96 245.548 941.219V947.285H243.415V935.508H245.459V937.286C245.888 936.678 246.466 936.212 247.192 935.886C247.933 935.56 248.77 935.397 249.703 935.397Z" fill="white"/>
<path d="M277.491 935.508V947.285H275.447V945.418C274.973 946.07 274.373 946.566 273.647 946.907C272.921 947.248 272.121 947.418 271.247 947.418C270.107 947.418 269.084 947.166 268.181 946.663C267.277 946.159 266.566 945.455 266.048 944.552C265.544 943.633 265.292 942.582 265.292 941.396C265.292 940.211 265.544 939.167 266.048 938.263C266.566 937.36 267.277 936.656 268.181 936.153C269.084 935.649 270.107 935.397 271.247 935.397C272.092 935.397 272.869 935.56 273.58 935.886C274.291 936.197 274.884 936.664 275.358 937.286V935.508H277.491ZM271.425 945.552C272.166 945.552 272.84 945.381 273.447 945.041C274.054 944.685 274.528 944.196 274.869 943.574C275.21 942.937 275.38 942.211 275.38 941.396C275.38 940.582 275.21 939.863 274.869 939.241C274.528 938.604 274.054 938.115 273.447 937.775C272.84 937.434 272.166 937.264 271.425 937.264C270.669 937.264 269.988 937.434 269.381 937.775C268.788 938.115 268.314 938.604 267.959 939.241C267.618 939.863 267.448 940.582 267.448 941.396C267.448 942.211 267.618 942.937 267.959 943.574C268.314 944.196 268.788 944.685 269.381 945.041C269.988 945.381 270.669 945.552 271.425 945.552Z" fill="white"/>
<path d="M291.348 937.486C291.719 936.804 292.267 936.286 292.993 935.93C293.718 935.575 294.6 935.397 295.637 935.397V937.464C295.518 937.449 295.355 937.441 295.148 937.441C293.992 937.441 293.081 937.789 292.415 938.486C291.763 939.167 291.437 940.145 291.437 941.419V947.285H289.304V935.508H291.348V937.486Z" fill="white"/>
<path d="M317.171 935.508V945.685C317.171 947.744 316.69 949.262 315.727 950.24C314.764 951.233 313.32 951.729 311.394 951.729C310.342 951.729 309.335 951.573 308.372 951.262C307.424 950.966 306.647 950.536 306.039 949.973L307.084 948.329C307.602 948.803 308.224 949.173 308.95 949.44C309.691 949.707 310.468 949.84 311.283 949.84C312.572 949.84 313.52 949.514 314.127 948.862C314.735 948.225 315.038 947.24 315.038 945.907V945.041C314.609 945.603 314.053 946.04 313.372 946.352C312.69 946.648 311.95 946.796 311.15 946.796C309.58 946.796 308.343 946.366 307.439 945.507C306.535 944.648 306.084 943.374 306.084 941.685V935.508H308.217V941.441C308.217 942.567 308.491 943.426 309.039 944.018C309.587 944.596 310.372 944.885 311.394 944.885C312.52 944.885 313.409 944.544 314.061 943.863C314.712 943.181 315.038 942.219 315.038 940.974V935.508H317.171Z" fill="white"/>
<path d="M83.9974 663.889C84.6984 664.327 85.5447 664.469 86.3502 664.283C87.1557 664.097 87.8543 663.599 88.2925 662.898C88.7306 662.197 88.8723 661.35 88.6864 660.545C88.5005 659.739 88.0023 659.041 87.3013 658.603C87.3013 658.603 87.3013 658.603 87.3013 658.603C86.0146 657.798 84.7279 656.994 83.4412 656.19C78.5366 653.125 73.6321 650.059 68.7275 646.994C68.1958 646.662 67.6637 646.33 67.1313 645.999C59.0261 640.256 46.9018 649.043 49.5702 658.337C50.7548 663.695 51.9157 669.056 52.87 674.412C53.3414 677.082 53.7681 679.771 54.0329 682.41C54.1623 683.727 54.2525 685.036 54.2343 686.266C54.2249 686.874 54.1825 687.478 54.0967 687.945C54.0558 688.175 53.9971 688.374 53.9655 688.454C53.9395 688.547 53.9411 688.41 54.3136 688.211C54.3845 688.177 54.4639 688.148 54.543 688.129C54.5196 688.144 54.5187 688.168 54.4288 688.175C54.3424 688.181 54.179 688.152 53.9784 688.069C53.57 687.905 53.0564 687.558 52.5562 687.136C51.547 686.283 50.5531 685.171 49.6477 683.989C48.7539 682.808 47.8991 681.527 47.301 680.178C47.2727 680.11 47.2146 680.054 47.145 680.02C47.0751 679.986 46.9994 679.977 46.9291 679.996C46.8588 680.014 46.7981 680.061 46.7548 680.125C46.7118 680.19 46.6897 680.267 46.699 680.34C46.699 680.34 46.699 680.34 46.699 680.34C46.9325 681.894 47.323 683.417 47.8023 684.938C48.299 686.464 48.892 687.986 49.8725 689.455C50.3744 690.187 50.9597 690.913 51.8614 691.552C52.7126 692.172 54.1805 692.729 55.6648 692.336C55.8766 692.282 56.0836 692.204 56.2772 692.108C58.2026 690.916 58.157 689.716 58.4469 688.882C58.6464 688.008 58.7208 687.216 58.7694 686.452C58.8577 684.924 58.8163 683.488 58.7419 682.054C58.5845 679.199 58.2692 676.405 57.9106 673.638C57.1816 668.098 56.2465 662.629 55.2455 657.185C54.129 652.442 60.0682 648.535 63.8294 651.282C64.3605 651.615 64.8919 651.948 65.4236 652.28C70.3282 655.346 75.2327 658.411 80.1373 661.476C81.424 662.281 82.7107 663.085 83.9974 663.889Z" fill="#FAD400"/>
<path fill-rule="evenodd" clip-rule="evenodd" d="M69.3179 685.306C74.4751 689.179 80.885 691.476 87.8315 691.476C91.607 691.476 95.2233 690.796 98.5669 689.555C100.26 692.398 101.234 695.72 101.234 699.27C101.234 709.77 92.7215 718.282 82.2212 718.282C71.7207 718.282 63.2077 709.77 63.2075 699.27C63.2075 693.749 65.5608 688.779 69.3179 685.306ZM82.2212 680.256C85.0615 680.256 87.756 680.88 90.1763 681.996C89.4061 682.08 88.6239 682.125 87.8315 682.125C84.8774 682.125 82.0629 681.528 79.5005 680.45C80.389 680.323 81.2975 680.256 82.2212 680.256Z" fill="white"/>
<path fill-rule="evenodd" clip-rule="evenodd" d="M87.8315 636C101.431 636 112.455 647.024 112.455 660.623C112.455 674.222 101.43 685.246 87.8315 685.246C74.2325 685.246 63.2076 674.222 63.2075 660.623C63.2075 647.024 74.2324 636 87.8315 636ZM96.8696 644.102C91.3611 644.102 86.895 648.568 86.895 654.076C86.8952 659.585 91.3612 664.05 96.8696 664.05C102.378 664.05 106.843 659.584 106.843 654.076C106.843 648.568 102.378 644.102 96.8696 644.102Z" fill="#FAD400"/>
<path d="M148.941 646.572C152.445 646.572 155.486 647.15 158.066 648.305C160.684 649.46 162.686 651.116 164.072 653.272C165.459 655.428 166.152 657.988 166.152 660.953C166.152 663.879 165.459 666.44 164.072 668.634C162.686 670.79 160.684 672.446 158.066 673.601C155.486 674.756 152.445 675.334 148.941 675.334H139.816V687H132.308V646.572H148.941ZM148.594 668.981C151.867 668.981 154.351 668.288 156.045 666.902C157.739 665.516 158.586 663.533 158.586 660.953C158.586 658.373 157.739 656.39 156.045 655.004C154.351 653.618 151.867 652.925 148.594 652.925H139.816V668.981H148.594ZM180.22 687.404C177.024 687.404 174.521 686.538 172.712 684.805C170.941 683.034 170.055 680.551 170.055 677.355V644.147H177.274V676.835C177.274 679.916 178.718 681.456 181.606 681.456C182.568 681.456 183.435 681.263 184.205 680.878L184.551 686.653C183.204 687.154 181.76 687.404 180.22 687.404ZM217.005 656.159V687H210.133V683.073C208.978 684.459 207.534 685.537 205.801 686.307C204.068 687.039 202.201 687.404 200.199 687.404C196.079 687.404 192.826 686.268 190.439 683.997C188.09 681.687 186.916 678.279 186.916 673.774V656.159H194.135V672.793C194.135 675.565 194.751 677.644 195.983 679.03C197.254 680.378 199.044 681.051 201.354 681.051C203.934 681.051 205.974 680.262 207.476 678.683C209.016 677.066 209.786 674.756 209.786 671.753V656.159H217.005ZM262.496 655.813C266.385 655.813 269.465 656.949 271.737 659.22C274.008 661.453 275.144 664.822 275.144 669.327V687H267.925V670.251C267.925 667.556 267.328 665.535 266.135 664.187C264.941 662.801 263.228 662.108 260.995 662.108C258.569 662.108 256.624 662.917 255.161 664.534C253.698 666.112 252.967 668.384 252.967 671.349V687H245.747V670.251C245.747 667.556 245.151 665.535 243.957 664.187C242.764 662.801 241.05 662.108 238.817 662.108C236.353 662.108 234.389 662.897 232.926 664.476C231.502 666.055 230.789 668.345 230.789 671.349V687H223.57V656.159H230.443V660.087C231.598 658.701 233.042 657.642 234.774 656.91C236.507 656.179 238.432 655.813 240.55 655.813C242.86 655.813 244.9 656.256 246.672 657.141C248.481 657.988 249.906 659.259 250.945 660.953C252.216 659.336 253.852 658.084 255.854 657.199C257.857 656.275 260.07 655.813 262.496 655.813ZM312.489 656.159V687H305.616V683.015C304.423 684.478 302.94 685.575 301.169 686.307C299.437 687.039 297.511 687.404 295.394 687.404C292.391 687.404 289.695 686.75 287.308 685.441C284.96 684.132 283.111 682.283 281.764 679.896C280.455 677.509 279.8 674.737 279.8 671.58C279.8 668.422 280.455 665.67 281.764 663.321C283.111 660.934 284.96 659.086 287.308 657.776C289.695 656.467 292.391 655.813 295.394 655.813C297.396 655.813 299.225 656.159 300.88 656.852C302.575 657.545 304.038 658.566 305.27 659.913V656.159H312.489ZM296.202 681.225C298.859 681.225 301.054 680.339 302.786 678.568C304.519 676.797 305.385 674.467 305.385 671.58C305.385 668.692 304.519 666.363 302.786 664.591C301.054 662.82 298.859 661.935 296.202 661.935C293.546 661.935 291.351 662.82 289.618 664.591C287.924 666.363 287.077 668.692 287.077 671.58C287.077 674.467 287.924 676.797 289.618 678.568C291.351 680.339 293.546 681.225 296.202 681.225Z" fill="#FAD400"/>
<path d="M136.399 707.418C135.437 707.418 134.511 707.292 133.622 707.04C132.733 706.774 132.037 706.44 131.533 706.04L132.422 704.352C132.94 704.722 133.57 705.018 134.311 705.241C135.051 705.463 135.799 705.574 136.555 705.574C138.421 705.574 139.355 705.041 139.355 703.974C139.355 703.618 139.229 703.337 138.977 703.13C138.725 702.922 138.407 702.774 138.021 702.685C137.651 702.582 137.118 702.47 136.422 702.352C135.474 702.204 134.696 702.033 134.089 701.841C133.496 701.648 132.985 701.322 132.555 700.863C132.126 700.404 131.911 699.76 131.911 698.93C131.911 697.863 132.355 697.012 133.244 696.375C134.133 695.723 135.325 695.397 136.822 695.397C137.607 695.397 138.392 695.493 139.177 695.686C139.962 695.879 140.606 696.138 141.11 696.464L140.199 698.152C139.236 697.53 138.103 697.219 136.799 697.219C135.896 697.219 135.207 697.367 134.733 697.664C134.259 697.96 134.022 698.352 134.022 698.841C134.022 699.226 134.155 699.53 134.422 699.752C134.688 699.974 135.014 700.137 135.399 700.241C135.799 700.345 136.355 700.463 137.066 700.597C138.014 700.76 138.777 700.937 139.355 701.13C139.947 701.308 140.451 701.619 140.866 702.063C141.28 702.507 141.488 703.13 141.488 703.93C141.488 704.996 141.029 705.848 140.11 706.485C139.207 707.107 137.97 707.418 136.399 707.418Z" fill="white"/>
<path d="M158.13 706.596C157.819 706.863 157.434 707.07 156.975 707.218C156.515 707.351 156.041 707.418 155.553 707.418C154.367 707.418 153.449 707.1 152.797 706.463C152.145 705.826 151.82 704.915 151.82 703.73V695H153.953V697.578H157.33V699.333H153.953V703.641C153.953 704.278 154.108 704.767 154.419 705.107C154.745 705.448 155.204 705.618 155.797 705.618C156.449 705.618 157.004 705.433 157.463 705.063L158.13 706.596Z" fill="white"/>
<path d="M179.194 695.508V707.285H177.149V705.418C176.675 706.07 176.075 706.566 175.349 706.907C174.624 707.248 173.824 707.418 172.95 707.418C171.809 707.418 170.787 707.166 169.883 706.663C168.98 706.159 168.269 705.455 167.75 704.552C167.247 703.633 166.995 702.582 166.995 701.396C166.995 700.211 167.247 699.167 167.75 698.263C168.269 697.36 168.98 696.656 169.883 696.153C170.787 695.649 171.809 695.397 172.95 695.397C173.794 695.397 174.572 695.56 175.283 695.886C175.994 696.197 176.586 696.664 177.06 697.286V695.508H179.194ZM173.127 705.552C173.868 705.552 174.542 705.381 175.149 705.041C175.757 704.685 176.231 704.196 176.572 703.574C176.912 702.937 177.083 702.211 177.083 701.396C177.083 700.582 176.912 699.863 176.572 699.241C176.231 698.604 175.757 698.115 175.149 697.775C174.542 697.434 173.868 697.264 173.127 697.264C172.372 697.264 171.691 697.434 171.083 697.775C170.491 698.115 170.017 698.604 169.661 699.241C169.32 699.863 169.15 700.582 169.15 701.396C169.15 702.211 169.32 702.937 169.661 703.574C170.017 704.196 170.491 704.685 171.083 705.041C171.691 705.381 172.372 705.552 173.127 705.552Z" fill="white"/>
<path d="M197.206 706.596C196.895 706.863 196.51 707.07 196.051 707.218C195.591 707.351 195.117 707.418 194.628 707.418C193.443 707.418 192.525 707.1 191.873 706.463C191.221 705.826 190.895 704.915 190.895 703.73V694.921H193.029V697.499H196.406V699.254H193.029V703.641C193.029 704.278 193.184 704.767 193.495 705.107C193.821 705.448 194.28 705.618 194.873 705.618C195.525 705.618 196.08 705.433 196.539 705.063L197.206 706.596Z" fill="white"/>
<path d="M207.55 699.499H209.683V707.285H207.55V699.499ZM208.617 697.233C208.202 697.233 207.854 697.099 207.572 696.833C207.306 696.566 207.172 696.24 207.172 695.855C207.172 695.47 207.306 695.144 207.572 694.877C207.854 694.596 208.202 694.455 208.617 694.455C209.031 694.455 209.372 694.588 209.639 694.855C209.92 695.107 210.061 695.425 210.061 695.81C210.061 696.21 209.92 696.551 209.639 696.833C209.372 697.099 209.031 697.233 208.617 697.233Z" fill="white"/>
<path d="M226.577 707.418C225.407 707.418 224.355 707.159 223.422 706.64C222.489 706.122 221.755 705.411 221.222 704.507C220.704 703.589 220.444 702.552 220.444 701.396C220.444 700.241 220.704 699.212 221.222 698.308C221.755 697.389 222.489 696.678 223.422 696.175C224.355 695.656 225.407 695.397 226.577 695.397C227.747 695.397 228.792 695.656 229.71 696.175C230.643 696.678 231.369 697.389 231.888 698.308C232.421 699.212 232.687 700.241 232.687 701.396C232.687 702.552 232.421 703.589 231.888 704.507C231.369 705.411 230.643 706.122 229.71 706.64C228.792 707.159 227.747 707.418 226.577 707.418ZM226.577 705.552C227.332 705.552 228.006 705.381 228.599 705.041C229.206 704.685 229.68 704.196 230.021 703.574C230.362 702.937 230.532 702.211 230.532 701.396C230.532 700.582 230.362 699.863 230.021 699.241C229.68 698.604 229.206 698.115 228.599 697.775C228.006 697.434 227.332 697.264 226.577 697.264C225.822 697.264 225.14 697.434 224.533 697.775C223.94 698.115 223.466 698.604 223.111 699.241C222.77 699.863 222.6 700.582 222.6 701.396C222.6 702.211 222.77 702.937 223.111 703.574C223.466 704.196 223.94 704.685 224.533 705.041C225.14 705.381 225.822 705.552 226.577 705.552Z" fill="white"/>
<path d="M249.703 695.397C251.199 695.397 252.384 695.834 253.258 696.708C254.147 697.567 254.591 698.834 254.591 700.508V707.285H252.458V700.752C252.458 699.611 252.184 698.752 251.636 698.175C251.088 697.597 250.303 697.308 249.281 697.308C248.125 697.308 247.214 697.649 246.548 698.33C245.881 698.997 245.548 699.96 245.548 701.219V707.285H243.415V695.508H245.459V697.286C245.888 696.678 246.466 696.212 247.192 695.886C247.933 695.56 248.77 695.397 249.703 695.397Z" fill="white"/>
<path d="M277.491 695.508V707.285H275.447V705.418C274.973 706.07 274.373 706.566 273.647 706.907C272.921 707.248 272.121 707.418 271.247 707.418C270.107 707.418 269.084 707.166 268.181 706.663C267.277 706.159 266.566 705.455 266.048 704.552C265.544 703.633 265.292 702.582 265.292 701.396C265.292 700.211 265.544 699.167 266.048 698.263C266.566 697.36 267.277 696.656 268.181 696.153C269.084 695.649 270.107 695.397 271.247 695.397C272.092 695.397 272.869 695.56 273.58 695.886C274.291 696.197 274.884 696.664 275.358 697.286V695.508H277.491ZM271.425 705.552C272.166 705.552 272.84 705.381 273.447 705.041C274.054 704.685 274.528 704.196 274.869 703.574C275.21 702.937 275.38 702.211 275.38 701.396C275.38 700.582 275.21 699.863 274.869 699.241C274.528 698.604 274.054 698.115 273.447 697.775C272.84 697.434 272.166 697.264 271.425 697.264C270.669 697.264 269.988 697.434 269.381 697.775C268.788 698.115 268.314 698.604 267.959 699.241C267.618 699.863 267.448 700.582 267.448 701.396C267.448 702.211 267.618 702.937 267.959 703.574C268.314 704.196 268.788 704.685 269.381 705.041C269.988 705.381 270.669 705.552 271.425 705.552Z" fill="white"/>
<path d="M291.348 697.486C291.719 696.804 292.267 696.286 292.993 695.93C293.718 695.575 294.6 695.397 295.637 695.397V697.464C295.518 697.449 295.355 697.441 295.148 697.441C293.992 697.441 293.081 697.789 292.415 698.486C291.763 699.167 291.437 700.145 291.437 701.419V707.285H289.304V695.508H291.348V697.486Z" fill="white"/>
<path d="M317.171 695.508V705.685C317.171 707.744 316.69 709.262 315.727 710.24C314.764 711.233 313.32 711.729 311.394 711.729C310.342 711.729 309.335 711.573 308.372 711.262C307.424 710.966 306.647 710.536 306.039 709.973L307.084 708.329C307.602 708.803 308.224 709.173 308.95 709.44C309.691 709.707 310.468 709.84 311.283 709.84C312.572 709.84 313.52 709.514 314.127 708.862C314.735 708.225 315.038 707.24 315.038 705.907V705.041C314.609 705.603 314.053 706.04 313.372 706.352C312.69 706.648 311.95 706.796 311.15 706.796C309.58 706.796 308.343 706.366 307.439 705.507C306.535 704.648 306.084 703.374 306.084 701.685V695.508H308.217V701.441C308.217 702.567 308.491 703.426 309.039 704.018C309.587 704.596 310.372 704.885 311.394 704.885C312.52 704.885 313.409 704.544 314.061 703.863C314.712 703.181 315.038 702.219 315.038 700.974V695.508H317.171Z" fill="white"/>
</g>
<defs>
<clipPath id="clip0_785_612">
<rect width="1553" height="1080" fill="white"/>
</clipPath>
</defs>
</svg>
