<svg width="42" height="42" viewBox="0 0 42 42" fill="none" xmlns="http://www.w3.org/2000/svg">
<path d="M36.8791 0.878689C38.0507 -0.292896 39.9497 -0.292896 41.1213 0.878689C42.2929 2.05027 42.2929 3.94934 41.1213 5.12092L5.12092 41.1213C3.94934 42.2929 2.05027 42.2929 0.878689 41.1213C-0.292896 39.9497 -0.292896 38.0507 0.878689 36.8791L36.8791 0.878689Z" fill="#020925"/>
<path d="M0.878689 0.878689C2.05027 -0.292896 3.94934 -0.292896 5.12092 0.878689L41.1213 36.8791C42.2929 38.0507 42.2929 39.9497 41.1213 41.1213C39.9497 42.2929 38.0507 42.2929 36.8791 41.1213L0.878689 5.12092C-0.292896 3.94934 -0.292896 2.05027 0.878689 0.878689Z" fill="#020925"/>
</svg>
