<svg width="425" height="232" viewBox="0 0 425 232" fill="none" xmlns="http://www.w3.org/2000/svg">
<path d="M348.6 177.581C346.681 177.581 345.242 177.052 344.282 175.994C343.323 174.84 342.843 173.253 342.843 171.233V112.232C342.843 110.213 343.323 108.674 344.282 107.616C345.242 106.558 346.681 106.029 348.6 106.029C350.423 106.029 351.862 106.558 352.917 107.616C353.973 108.674 354.5 110.213 354.5 112.232V171.233C354.5 173.253 353.973 174.84 352.917 175.994C351.958 177.052 350.519 177.581 348.6 177.581Z" fill="#EDF1FF"/>
<path d="M256.023 48.5482C257.901 47.1675 260.245 46.6099 262.543 46.9859C270.704 48.319 278.764 49.7984 286.85 51.468C313.823 57.0983 340.574 64.4374 366.173 75.8534C390.053 87.7906 425 107.616 425 137.556C422.983 167.758 397.243 181.691 377.268 192.471C355.961 203.057 333.607 209.962 310.941 215.459C265.691 226.197 219.472 230.787 173.303 231.823C165.144 231.994 157.012 232.04 148.81 231.966C147.676 231.955 146.587 231.49 145.785 230.678C144.983 229.867 144.532 228.775 144.532 227.638C144.532 226.501 144.983 225.409 145.785 224.598C146.587 223.786 147.676 223.321 148.81 223.31C156.926 223.236 164.968 223.041 173.031 222.725C218.639 220.87 264.195 215.462 308.137 204.171C348.97 192.558 410.87 169.305 410.87 137.556C409.941 115.742 382.978 100.229 359.901 90.1935C335.73 79.9302 309.765 73.2589 283.548 68.2977C275.683 66.8235 267.832 65.5315 259.876 64.3807C257.571 64.0476 255.502 62.81 254.125 60.9279C252.747 59.0464 252.176 56.6745 252.533 54.3464C252.89 52.0183 254.146 49.9282 256.023 48.5482Z" fill="#EDF1FF"/>
<path d="M200.764 0C202.195 0 203.355 1.16255 203.355 2.59663C203.355 18.8606 216.446 32.0251 232.57 32.0251C234.001 32.0251 235.16 33.1877 235.16 34.6218C235.16 36.0558 234.001 37.2184 232.57 37.2184C216.446 37.2184 203.355 50.3829 203.355 66.6469C203.355 68.081 202.195 69.2435 200.764 69.2435C199.334 69.2435 198.174 68.081 198.174 66.6469C198.174 50.3829 185.083 37.2184 168.959 37.2184C167.528 37.2184 166.368 36.0558 166.368 34.6218C166.368 33.1877 167.528 32.0251 168.959 32.0251C185.083 32.0251 198.174 18.8606 198.174 2.59663C198.174 1.16255 199.334 0 200.764 0Z" fill="#EDF1FF"/>
<path fill-rule="evenodd" clip-rule="evenodd" d="M112.595 171.81V164.759C111.792 166.67 110.737 168.396 109.429 169.935C107.318 172.532 104.679 174.551 101.513 175.994C98.3471 177.436 94.7971 178.158 90.8634 178.158C86.0661 178.158 81.7486 177.244 77.9108 175.417C74.169 173.493 71.1947 170.897 68.988 167.627C66.7813 164.357 65.6779 160.703 65.6779 156.663C65.6779 151.47 66.9732 147.383 69.5637 144.402C72.2501 141.42 76.6156 139.304 82.6601 138.054C88.8006 136.804 97.1478 136.179 107.702 136.179H112.307V131.707C112.307 125.744 111.108 121.465 108.709 118.868C106.31 116.175 102.377 114.829 96.9079 114.829C93.5498 114.829 90.1918 115.262 86.8337 116.127C83.4756 116.993 79.9257 118.387 76.1838 120.311C74.8406 120.984 73.6893 121.224 72.7298 121.032C71.7704 120.743 71.0028 120.214 70.4272 119.445C69.8515 118.676 69.5157 117.81 69.4197 116.848C69.3238 115.791 69.5157 114.781 69.9954 113.819C70.5711 112.857 71.4346 112.088 72.5859 111.511C76.8075 109.395 80.9811 107.856 85.1067 106.895C89.2323 105.933 93.1661 105.452 96.9079 105.452C102.952 105.452 107.942 106.462 111.875 108.482C115.809 110.405 118.735 113.386 120.654 117.425C122.573 121.368 123.533 126.466 123.533 132.717V171.81C123.533 173.734 123.053 175.225 122.093 176.282C121.23 177.34 119.935 177.869 118.208 177.869C116.385 177.869 114.993 177.34 114.034 176.282C113.075 175.225 112.595 173.734 112.595 171.81ZM89.4242 144.979C93.9336 144.209 100.074 143.825 107.846 143.825H112.307V148.152C112.307 152.288 111.444 155.942 109.717 159.116C108.085 162.289 105.783 164.79 102.808 166.617C99.9302 168.444 96.5721 169.358 92.7343 169.358C88.033 169.358 84.2912 168.108 81.5088 165.607C78.8223 163.107 77.4791 159.885 77.4791 155.942C77.4791 152.769 78.3426 150.316 80.0696 148.585C81.8926 146.854 85.0107 145.652 89.4242 144.979Z" fill="#EDF1FF"/>
<path d="M1.43917 176.282C2.39862 177.34 3.83779 177.869 5.75668 177.869C9.69042 177.869 11.6573 175.85 11.6573 171.81V136.9C11.6573 130.264 13.5282 124.975 17.27 121.032C21.1078 116.993 26.2409 114.973 32.6692 114.973C38.234 114.973 42.2636 116.512 44.7582 119.589C47.3487 122.571 48.644 127.331 48.644 133.871V171.81C48.644 173.734 49.1237 175.225 50.0831 176.282C51.1385 177.34 52.6257 177.869 54.5446 177.869C56.3675 177.869 57.7587 177.34 58.7182 176.282C59.7736 175.225 60.3013 173.734 60.3013 171.81V133.15C60.3013 126.898 59.3898 121.753 57.5668 117.714C55.7439 113.579 52.9615 110.501 49.2196 108.482C45.5737 106.462 40.9684 105.452 35.4036 105.452C29.455 105.452 24.1781 106.895 19.5727 109.78C16.0975 111.929 13.3631 114.907 11.3694 118.712V111.655C11.3694 109.732 10.8418 108.289 9.78636 107.327C8.82691 106.27 7.43571 105.741 5.61276 105.741C3.78981 105.741 2.39862 106.27 1.43917 107.327C0.479723 108.289 0 109.732 0 111.655V171.81C0 173.734 0.479723 175.225 1.43917 176.282Z" fill="#EDF1FF"/>
<path d="M273.999 176.282C274.958 177.34 276.398 177.869 278.316 177.869C282.25 177.869 284.217 175.85 284.217 171.81V136.9C284.217 130.264 286.088 124.975 289.83 121.032C293.668 116.993 298.801 114.973 305.229 114.973C310.794 114.973 314.823 116.512 317.318 119.589C319.909 122.571 321.204 127.331 321.204 133.871V171.81C321.204 173.734 321.683 175.225 322.643 176.282C323.698 177.34 325.185 177.869 327.104 177.869C328.927 177.869 330.319 177.34 331.278 176.282C332.333 175.225 332.861 173.734 332.861 171.81V133.15C332.861 126.898 331.95 121.753 330.127 117.714C328.304 113.579 325.521 110.501 321.779 108.482C318.134 106.462 313.528 105.452 307.963 105.452C302.015 105.452 296.738 106.895 292.133 109.78C288.657 111.929 285.923 114.907 283.929 118.712V111.655C283.929 109.732 283.402 108.289 282.346 107.327C281.387 106.27 279.995 105.741 278.173 105.741C276.35 105.741 274.958 106.27 273.999 107.327C273.04 108.289 272.56 109.732 272.56 111.655V171.81C272.56 173.734 273.04 175.225 273.999 176.282Z" fill="#EDF1FF"/>
<path d="M219.854 173.83C225.226 176.715 231.607 178.158 238.995 178.158C243.216 178.158 247.486 177.533 251.803 176.282C256.121 175.032 259.862 173.253 263.029 170.945C264.276 170.176 265.091 169.262 265.475 168.204C265.955 167.146 266.051 166.184 265.763 165.319C265.571 164.357 265.139 163.588 264.468 163.011C263.796 162.338 262.885 162.001 261.733 162.001C260.678 161.905 259.479 162.289 258.135 163.155C255.065 165.175 251.899 166.617 248.637 167.483C245.471 168.348 242.257 168.781 238.995 168.781C231.127 168.781 225.035 166.473 220.717 161.857C216.919 157.703 214.829 151.837 214.448 144.257H262.165C263.796 144.257 265.043 143.921 265.907 143.248C266.77 142.478 267.202 141.324 267.202 139.785C267.202 134.496 266.483 129.735 265.043 125.504C263.7 121.272 261.685 117.666 258.999 114.685C256.408 111.703 253.242 109.443 249.5 107.904C245.759 106.27 241.537 105.452 236.836 105.452C230.216 105.452 224.363 106.991 219.278 110.068C214.289 113.146 210.355 117.425 207.477 122.907C204.598 128.293 203.159 134.64 203.159 141.949C203.159 149.451 204.598 155.894 207.477 161.28C210.451 166.665 214.577 170.849 219.854 173.83ZM257.093 136.612H214.578C214.921 133.034 215.72 129.813 216.975 126.946C218.702 122.907 221.245 119.782 224.603 117.57C228.057 115.262 232.23 114.108 237.124 114.108C241.537 114.108 245.183 115.069 248.061 116.993C251.036 118.916 253.29 121.705 254.825 125.36C256.172 128.481 256.928 132.232 257.093 136.612Z" fill="#EDF1FF"/>
<path fill-rule="evenodd" clip-rule="evenodd" d="M143.864 80.0628V118.752C145.618 115.336 148.112 112.49 151.348 110.213C155.857 107.039 161.278 105.452 167.611 105.452C173.943 105.452 179.412 106.943 184.017 109.924C188.622 112.809 192.172 116.993 194.667 122.474C197.257 127.86 198.553 134.304 198.553 141.805C198.553 149.21 197.257 155.654 194.667 161.135C192.172 166.521 188.574 170.704 183.873 173.686C179.268 176.667 173.847 178.158 167.611 178.158C161.278 178.158 155.809 176.523 151.204 173.253C147.921 170.873 145.427 167.906 143.72 164.354V171.81C143.72 173.734 143.193 175.225 142.137 176.282C141.178 177.34 139.787 177.869 137.964 177.869C136.045 177.869 134.606 177.34 133.646 176.282C132.687 175.225 132.207 173.734 132.207 171.81V80.0628C132.207 78.1394 132.687 76.6968 133.646 75.7351C134.606 74.6772 136.045 74.1483 137.964 74.1483C139.787 74.1483 141.226 74.6772 142.281 75.7351C143.337 76.6968 143.864 78.1394 143.864 80.0628ZM176.533 165.607C173.367 167.723 169.577 168.781 165.164 168.781C158.64 168.781 153.411 166.473 149.477 161.857C145.543 157.144 143.576 150.46 143.576 141.805C143.576 135.938 144.44 131.034 146.167 127.091C147.99 123.051 150.532 120.022 153.794 118.002C157.057 115.887 160.846 114.829 165.164 114.829C171.784 114.829 177.013 117.137 180.851 121.753C184.785 126.369 186.751 133.053 186.751 141.805C186.751 147.479 185.84 152.336 184.017 156.375C182.29 160.414 179.796 163.492 176.533 165.607Z" fill="#EDF1FF"/>
</svg>
