<svg width="42" height="42" viewBox="0 0 42 42" fill="none" xmlns="http://www.w3.org/2000/svg">
<path d="M34.3636 13.3523C35.2205 13.3523 36.069 13.5225 36.86 13.852C37.6485 14.1805 38.3645 14.6613 38.9667 15.267L41.4407 17.741C42.1862 18.4865 42.1862 19.695 41.4407 20.4406C40.6951 21.1861 39.4867 21.1861 38.7411 20.4406L36.2615 17.961C36.0131 17.7105 35.7166 17.5113 35.3909 17.3756C35.0654 17.2401 34.7162 17.1705 34.3636 17.1705C34.0111 17.1705 33.6619 17.2401 33.3364 17.3756C33.0107 17.5113 32.7142 17.7105 32.4657 17.961L20.4407 29.986C19.6951 30.7316 18.4867 30.7316 17.7411 29.986C16.9956 29.2405 16.9956 28.032 17.7411 27.2865L29.7606 15.267C30.3628 14.6613 31.0787 14.1805 31.8673 13.852C32.6583 13.5225 33.5068 13.3523 34.3636 13.3523Z" fill="#020925"/>
<path d="M0 36.2727V17.1818C0 15.6629 0.60384 14.2065 1.67791 13.1325C2.75198 12.0584 4.2083 11.4545 5.72727 11.4545C6.78163 11.4545 7.63636 12.3093 7.63636 13.3636C7.63636 14.418 6.78163 15.2727 5.72727 15.2727C5.22095 15.2727 4.73551 15.474 4.37749 15.832C4.01946 16.1901 3.81818 16.6755 3.81818 17.1818V36.2727C3.81818 36.779 4.01946 37.2645 4.37749 37.6225C4.73551 37.9805 5.22095 38.1818 5.72727 38.1818H24.8182C25.3245 38.1818 25.8099 37.9805 26.168 37.6225C26.526 37.2645 26.7273 36.779 26.7273 36.2727C26.7273 35.2184 27.582 34.3636 28.6364 34.3636C29.6907 34.3636 30.5455 35.2184 30.5455 36.2727C30.5455 37.7917 29.9416 39.248 28.8675 40.3221C27.7935 41.3962 26.3372 42 24.8182 42H5.72727C4.20831 42 2.75198 41.3962 1.67791 40.3221C0.60384 39.248 0 37.7917 0 36.2727Z" fill="#020925"/>
<path d="M22.9091 13.3636C23.9635 13.3636 24.8182 12.5089 24.8182 11.4545C24.8182 10.4002 23.9635 9.54545 22.9091 9.54545C21.8547 9.54545 21 10.4002 21 11.4545C21 12.5089 21.8547 13.3636 22.9091 13.3636Z" fill="#020925"/>
<path d="M19.0909 11.4545C19.0909 9.34582 20.8004 7.63636 22.9091 7.63636C25.0178 7.63636 26.7273 9.34582 26.7273 11.4545C26.7273 13.5633 25.0178 15.2727 22.9091 15.2727C20.8004 15.2727 19.0909 13.5633 19.0909 11.4545Z" fill="#020925"/>
<path d="M38.1818 5.72727C38.1818 4.67291 37.3271 3.81818 36.2727 3.81818H17.1818C16.1275 3.81818 15.2727 4.67291 15.2727 5.72727V24.8182C15.2727 25.8725 16.1275 26.7273 17.1818 26.7273H36.2727C37.3271 26.7273 38.1818 25.8725 38.1818 24.8182V5.72727ZM42 24.8182C42 27.9813 39.4358 30.5455 36.2727 30.5455H17.1818C14.0187 30.5455 11.4545 27.9813 11.4545 24.8182V5.72727C11.4545 2.56419 14.0187 0 17.1818 0H36.2727C39.4358 0 42 2.56419 42 5.72727V24.8182Z" fill="#020925"/>
</svg>
