<svg width="24" height="24" viewBox="0 0 24 24" fill="none" xmlns="http://www.w3.org/2000/svg">
<path d="M19.6364 7.62991C20.126 7.62991 20.6109 7.72712 21.0629 7.91542C21.5134 8.10317 21.9226 8.37786 22.2667 8.72402L23.6804 10.1377C24.1064 10.5637 24.1064 11.2543 23.6804 11.6803C23.2544 12.1064 22.5638 12.1064 22.1378 11.6803L20.7209 10.2634C20.5789 10.1203 20.4095 10.0065 20.2234 9.92892C20.0374 9.85149 19.8378 9.81173 19.6364 9.81173C19.4349 9.81173 19.2354 9.85149 19.0494 9.92892C18.8632 10.0065 18.6938 10.1203 18.5518 10.2634L11.6804 17.1349C11.2544 17.5609 10.5638 17.5609 10.1378 17.1349C9.71179 16.7089 9.71177 16.0183 10.1378 15.5923L17.006 8.72402C17.3502 8.37786 17.7593 8.10317 18.2099 7.91542C18.6619 7.72712 19.1467 7.62991 19.6364 7.62991Z" fill="#020925"/>
<path d="M0 20.7273V9.81818C0 8.9502 0.345051 8.11802 0.958807 7.50426C1.57256 6.89051 2.40475 6.54545 3.27273 6.54545C3.87522 6.54545 4.36364 7.03387 4.36364 7.63636C4.36364 8.23886 3.87522 8.72727 3.27273 8.72727C2.9834 8.72727 2.70601 8.84229 2.50142 9.04688C2.29684 9.25146 2.18182 9.52886 2.18182 9.81818V20.7273C2.18182 21.0166 2.29684 21.294 2.50142 21.4986C2.70601 21.7032 2.9834 21.8182 3.27273 21.8182H14.1818C14.4711 21.8182 14.7485 21.7032 14.9531 21.4986C15.1577 21.294 15.2727 21.0166 15.2727 20.7273C15.2727 20.1248 15.7611 19.6364 16.3636 19.6364C16.9661 19.6364 17.4545 20.1248 17.4545 20.7273C17.4545 21.5953 17.1095 22.4274 16.4957 23.0412C15.882 23.6549 15.0498 24 14.1818 24H3.27273C2.40475 24 1.57256 23.6549 0.958807 23.0412C0.345051 22.4274 0 21.5953 0 20.7273Z" fill="#020925"/>
<path d="M13.0909 7.63636C13.6934 7.63636 14.1818 7.14795 14.1818 6.54545C14.1818 5.94296 13.6934 5.45455 13.0909 5.45455C12.4884 5.45455 12 5.94296 12 6.54545C12 7.14795 12.4884 7.63636 13.0909 7.63636Z" fill="#020925"/>
<path d="M10.9091 6.54545C10.9091 5.34047 11.8859 4.36364 13.0909 4.36364C14.2959 4.36364 15.2727 5.34047 15.2727 6.54545C15.2727 7.75044 14.2959 8.72727 13.0909 8.72727C11.8859 8.72727 10.9091 7.75044 10.9091 6.54545Z" fill="#020925"/>
<path d="M21.8182 3.27273C21.8182 2.67023 21.3298 2.18182 20.7273 2.18182H9.81818C9.21569 2.18182 8.72727 2.67023 8.72727 3.27273V14.1818C8.72727 14.7843 9.21569 15.2727 9.81818 15.2727H20.7273C21.3298 15.2727 21.8182 14.7843 21.8182 14.1818V3.27273ZM24 14.1818C24 15.9893 22.5348 17.4545 20.7273 17.4545H9.81818C8.0107 17.4545 6.54545 15.9893 6.54545 14.1818V3.27273C6.54545 1.46525 8.0107 0 9.81818 0H20.7273C22.5348 0 24 1.46525 24 3.27273V14.1818Z" fill="#020925"/>
</svg>
