<svg width="43" height="38" viewBox="0 0 43 38" fill="none" xmlns="http://www.w3.org/2000/svg">
<path d="M40.1667 0.5C41.4553 0.5 42.5 1.53534 42.5 2.8125C42.5 4.08966 41.4553 5.125 40.1667 5.125H2.83333C1.54467 5.125 0.5 4.08966 0.5 2.8125C0.5 1.53534 1.54467 0.5 2.83333 0.5H40.1667Z" fill="#EDF1FF"/>
<path d="M40.1667 16.6875C41.4553 16.6875 42.5 17.7228 42.5 19C42.5 20.2772 41.4553 21.3125 40.1667 21.3125H2.83333C1.54467 21.3125 0.5 20.2772 0.5 19C0.5 17.7228 1.54467 16.6875 2.83333 16.6875H40.1667Z" fill="#EDF1FF"/>
<path d="M40.1667 32.875C41.4553 32.875 42.5 33.9103 42.5 35.1875C42.5 36.4647 41.4553 37.5 40.1667 37.5H2.83333C1.54467 37.5 0.5 36.4647 0.5 35.1875C0.5 33.9103 1.54467 32.875 2.83333 32.875H40.1667Z" fill="#EDF1FF"/>
<path d="M40.1667 0.5C41.4553 0.5 42.5 1.53534 42.5 2.8125C42.5 4.08966 41.4553 5.125 40.1667 5.125H2.83333C1.54467 5.125 0.5 4.08966 0.5 2.8125C0.5 1.53534 1.54467 0.5 2.83333 0.5H40.1667Z" stroke="#EDF1FF" stroke-linecap="round" stroke-linejoin="round"/>
<path d="M40.1667 16.6875C41.4553 16.6875 42.5 17.7228 42.5 19C42.5 20.2772 41.4553 21.3125 40.1667 21.3125H2.83333C1.54467 21.3125 0.5 20.2772 0.5 19C0.5 17.7228 1.54467 16.6875 2.83333 16.6875H40.1667Z" stroke="#EDF1FF" stroke-linecap="round" stroke-linejoin="round"/>
<path d="M40.1667 32.875C41.4553 32.875 42.5 33.9103 42.5 35.1875C42.5 36.4647 41.4553 37.5 40.1667 37.5H2.83333C1.54467 37.5 0.5 36.4647 0.5 35.1875C0.5 33.9103 1.54467 32.875 2.83333 32.875H40.1667Z" stroke="#EDF1FF" stroke-linecap="round" stroke-linejoin="round"/>
</svg>
